<?xml version="1.0" encoding="UTF-8" standalone="no"?>
<svg
   version="1.0"
   width="1280.000000pt"
   height="628.000000pt"
   viewBox="0 0 1280.000000 628.000000"
   preserveAspectRatio="xMidYMid meet"
   id="svg4294"
   inkscape:version="1.2.1 (9c6d41e410, 2022-07-14)"
   sodipodi:docname="activeNavButton - Copy.svg"
   xmlns:inkscape="http://www.inkscape.org/namespaces/inkscape"
   xmlns:sodipodi="http://sodipodi.sourceforge.net/DTD/sodipodi-0.dtd"
   xmlns="http://www.w3.org/2000/svg"
   xmlns:svg="http://www.w3.org/2000/svg">
  <defs
     id="defs4298" />
  <sodipodi:namedview
     id="namedview4296"
     pagecolor="#505050"
     bordercolor="#eeeeee"
     borderopacity="1"
     inkscape:showpageshadow="0"
     inkscape:pageopacity="0"
     inkscape:pagecheckerboard="0"
     inkscape:deskcolor="#505050"
     inkscape:document-units="pt"
     showgrid="false"
     inkscape:zoom="0.60761719"
     inkscape:cx="853.33333"
     inkscape:cy="418.02636"
     inkscape:window-width="2560"
     inkscape:window-height="1369"
     inkscape:window-x="-8"
     inkscape:window-y="-8"
     inkscape:window-maximized="1"
     inkscape:current-layer="svg4294" />
  <metadata
     id="metadata3796">
Created by potrace 1.15, written by Peter Selinger 2001-2017
</metadata>
  <path
     d="m 1270.6469,74.433964 c -52.9747,-0.01282 -105.9493,-0.0564 -158.9214,-0.08716 -33.0845,-0.01794 -74.7772,-7.162409 -106.6594,1.240732 -12.65858,3.345363 -10.9923,19.098049 -23.49191,22.71258 -18.29311,5.293624 -39.30097,-1.861099 -58.07345,-0.481938 -18.23159,1.335582 -17.80092,17.959862 -30.23388,25.991292 -10.40011,6.71123 -33.8843,-9.50801 -42.74631,-13.5045 C 807.0898,90.704476 763.40525,71.675642 719.59766,52.931355 681.46309,36.619827 643.29006,20.385203 605.2529,3.8455237 588.56453,-3.411735 570.89435,1.2051222 553.92913,4.6709695 c -22.62542,4.6296748 -45.75841,5.2602949 -68.653,7.8801885 -39.00872,4.45792 -77.26122,7.313655 -116.50835,8.033998 -18.19314,0.330691 -36.51701,0.833136 -54.64606,-1.081796 -6.96502,-0.73316 -14.02489,-0.643437 -20.60025,2.186663 -10.77694,4.632238 -24.36091,-0.30762 -36.23246,2.622457 -37.70905,9.290111 -79.21974,5.278239 -117.69014,6.162646 C 96.71414,31.467199 53.931946,35.276555 11.049777,35.750801 -5.3258384,35.927683 0.57533071,65.556575 3.3336529,75.57472 c 4.5117538,16.370489 15.5065901,29.83654 30.2979641,38.01409 15.757813,8.71589 35.089141,11.95358 52.684981,14.81701 21.384692,3.48635 48.937152,-0.2948 69.042652,8.00324 31.75916,13.13279 76.81005,19.51333 110.95326,15.76806 20.64897,-2.25587 34.87381,2.37893 54.91266,7.61102 7.23163,1.89186 56.17903,6.17547 58.33749,10.34628 4.2349,8.19806 -34.18935,47.59131 -39.39837,54.54608 -7.81867,10.44881 -15.32459,21.68205 -19.53898,34.14063 -5.01676,14.81957 -0.28454,19.70816 -12.04843,30.86706 -41.62862,39.50861 -27.51144,95.6133 30.48767,103.07307 24.17377,3.11465 47.51697,1.19203 66.95596,18.63662 19.91324,17.86501 41.68245,24.55573 63.86439,37.95769 18.44179,11.13583 36.5734,35.09171 58.90146,38.59088 9.06452,1.4253 20.36698,-4.34513 27.52426,-9.30806 9.88228,-6.83684 11.71005,-20.26956 19.16214,-26.1169 28.08054,22.4511 68.33769,-7.34954 79.99903,-33.49721 3.99137,-8.93635 95.05958,18.90579 109.44336,20.70024 39.50861,4.92704 80.4092,2.45583 117.81061,-12.02024 16.36536,-6.32927 14.37353,16.79603 16.13208,26.54245 3.34024,18.52895 8.92354,40.14948 23.74567,53.01823 24.37373,21.14628 57.35055,-8.60309 66.73807,31.68225 2.31484,9.9515 4.40921,33.59206 17.28562,36.60417 17.9471,4.19644 46.0251,-3.68631 65.0923,-3.65298 50.8162,0.0923 101.6299,-0.61524 152.4461,-0.52296 7.7417,0.0154 46.4864,2.51992 46.4864,-2.18922 0,-7.93402 0,-15.86292 0,-23.79181 0,-33.73049 0,-67.4661 0,-101.19659 0,-90.63498 0,-181.27766 0,-271.92801 -0.01,-32.60768 -0.01,-65.22048 -0.01,-97.835846 z M 456.77774,308.96825 c 0,-1.33558 -36.79899,1.13563 -40.18024,2.06105 -16.0116,4.3964 -19.66458,4.85526 -35.41727,-1.82008 -17.37025,-7.34442 -32.3744,-1.44838 -49.61135,-4.20414 -22.82794,-3.64529 18.59304,-26.8962 22.90228,-28.69065 34.6636,-14.4735 74.2568,-23.37908 110.28162,-9.92329 6.38567,2.37892 15.20922,7.00347 22.24346,4.14517 6.67278,-2.70705 8.36725,-8.20832 16.63965,-8.52619 19.06729,-0.74854 37.35271,-1.72523 55.82783,-7.11882 36.67338,-10.70516 69.43231,-29.2982 100.97613,-50.18813 13.66087,-9.05171 32.64356,-18.82119 49.58571,-17.05751 21.29753,2.20461 8.52107,-18.30336 -8.01605,-18.9186 -23.30475,-0.87928 -69.64507,36.85282 -88.92769,15.89624 -10.80002,-11.73056 4.13748,-28.44969 8.54926,-39.46759 8.27753,-20.70024 -14.8042,-16.69606 -24.01484,-5.83709 -6.00627,7.08551 -19.76712,29.88012 -31.75916,21.34111 -13.05332,-9.29011 -14.87597,-20.06705 -11.56649,-35.05838 5.28849,-24.05328 -17.20107,-10.78719 -29.26488,-7.95965 -23.50726,5.52177 -47.65796,8.35443 -71.81636,7.99811 -19.13137,-0.26661 -38.273,-2.8865 -56.43537,-9.04146 -17.9009,-6.06266 -28.45481,-13.05332 -47.70924,-7.16753 -40.71601,12.43039 -85.22087,-2.73269 -126.71364,-0.8075 -17.1421,0.80237 -37.01432,2.28407 -53.37712,-4.21695 -17.04725,-6.783017 -36.42216,-0.0436 -54.12054,-0.141 -19.049342,-0.1 -37.947438,-2.7455 -56.271311,-8.021178 -8.536444,-2.458393 -17.303602,-5.30131 -25.255568,-9.341381 -1.36378,-0.692144 -13.376324,-10.230915 -4.580968,-8.936349 17.818864,2.622457 39.529116,4.75785 57.058305,-0.01025 16.408942,-4.463047 15.991092,-19.051906 27.885712,-27.23715 10.79745,-7.423886 35.6403,-1.189463 48.06044,-0.969002 23.37139,0.412723 46.54028,-0.687017 69.83733,-2.466084 10.38985,-0.794684 24.77877,-3.578641 34.56876,1.673963 10.42574,5.596113 14.54015,11.751069 26.90902,2.658346 21.31291,-15.652709 52.41069,-8.554388 76.99462,-8.415959 61.36754,0.346072 120.0306,-12.999491 180.93928,-15.919313 61.01121,-2.935204 112.03505,21.910205 166.99385,45.868643 56.24055,24.514717 112.38369,52.490154 170.52379,72.206004 31.14135,10.56929 37.73467,25.71956 40.12641,58.17855 1.84828,24.98128 0.89722,56.20978 -19.28262,74.2568 -21.89739,19.58511 -53.49505,17.14466 -80.71169,18.89297 -28.28818,1.81751 -56.69172,4.00674 -84.98504,1.18946 -22.78435,-2.25844 -55.10748,-13.57884 -76.79722,-3.56583 -24.68391,11.40756 -40.29561,24.71724 -69.19647,21.48467 -25.17353,-2.80959 -50.33681,-4.26053 -74.52597,-7.37262 -6.36003,-0.82032 -18.36489,7.68536 -22.88433,5.2885 -13.07127,-6.94964 -29.30846,-4.73991 -43.48203,-4.73991 0,0.0231 7.53412,0 0,0 z m 581.67016,-14.27098 c 0.2923,38.29094 -1.1869,76.63316 -3.2838,114.84977 -1.128,20.54898 -2.5122,41.55428 -5.7294,61.88537 -3.0762,19.46206 -14.371,21.41545 -32.52568,22.205 -13.24046,0.57679 -36.04276,3.26333 -47.44519,-5.02701 -13.46348,-9.79256 -10.32833,-32.44618 -9.16194,-46.53003 3.58121,-43.30002 8.66718,-86.37958 10.05147,-129.83597 1.27406,-39.90851 1.45094,-80.27076 -1.3971,-120.11518 -1.24074,-17.35231 -1.88674,-35.39933 -5.07573,-52.53117 -3.74526,-20.11833 -2.03541,-21.61028 19.34415,-22.72796 35.28653,-1.85341 61.07532,-1.78676 68.07622,38.36528 7.9315,45.54052 7.147,93.38049 7.147,139.4619 0.092,11.79464 0,-6.98041 0,0 z m -677.17322,69.37077 c -16.77296,-0.54346 -42.41818,-1.24073 -57.55819,-9.24396 -17.94704,-9.46187 28.98033,-26.97311 32.89223,-27.76011 11.83566,-2.3943 31.41565,-3.89651 40.22126,6.73431 15.85522,19.1365 8.02118,30.885 -15.5553,30.26976 -3.16336,-0.1051 5.58842,0.14356 0,0 z M 50.191805,68.4482 C 41.47848,67.879103 27.622781,68.686605 22.426575,59.81178 14.34387,46.015041 44.298326,49.437309 50.781409,48.888721 57.672088,48.30168 90.897566,40.367659 90.994979,51.836742 91.125717,69.4454 61.31738,67.815016 50.191805,68.4482 c -3.591459,-0.233279 9.797683,-0.56397 0,0 z"
     id="back"
     style="stroke-width:2.5635" />
</svg>
