<?xml version="1.0" standalone="no"?>
<!DOCTYPE svg PUBLIC "-//W3C//DTD SVG 20010904//EN"
 "http://www.w3.org/TR/2001/REC-SVG-20010904/DTD/svg10.dtd">
<svg version="1.0" xmlns="http://www.w3.org/2000/svg"
 width="1280.000000pt" height="628.000000pt" viewBox="0 0 1280.000000 628.000000"
 preserveAspectRatio="xMidYMid meet">
<metadata>
Created by potrace 1.15, written by Peter Selinger 2001-2017
</metadata>
<g transform="translate(0.000000,628.000000) scale(0.100000,-0.100000)"
fill="#000000" stroke="none">
<path d="M3379 5826 c-2 -2 -71 -6 -154 -9 -82 -3 -197 -13 -255 -21 -106 -15
-303 -53 -330 -63 -8 -3 -26 -8 -40 -10 -70 -12 -317 -99 -445 -157 -114 -53
-145 -69 -320 -171 -19 -11 -59 -37 -90 -59 -30 -21 -62 -39 -72 -40 -9 0 -24
-7 -33 -14 -13 -11 -58 -47 -144 -114 -42 -33 -175 -158 -205 -192 -14 -17
-33 -37 -42 -45 -44 -44 -143 -178 -221 -298 -76 -119 -168 -300 -168 -332 0
-7 -5 -9 -12 -5 -6 4 -8 3 -5 -3 4 -6 -4 -40 -18 -76 -98 -260 -121 -616 -60
-907 19 -90 70 -249 101 -315 13 -27 37 -88 54 -135 64 -174 212 -465 256
-501 8 -6 14 -17 14 -24 0 -7 16 -29 35 -48 19 -19 32 -37 28 -41 -3 -3 6 -15
21 -27 14 -11 23 -25 20 -30 -3 -6 3 -13 15 -16 12 -3 21 -11 21 -18 0 -15 56
-66 64 -58 3 4 16 -5 28 -19 13 -14 37 -40 54 -59 31 -34 97 -86 160 -124 18
-12 41 -28 52 -38 10 -9 26 -17 34 -17 9 0 21 -7 28 -15 7 -8 18 -15 25 -15 8
0 26 -6 42 -14 45 -23 114 -53 171 -75 28 -12 75 -30 102 -41 28 -11 50 -17
50 -12 0 4 4 2 8 -4 7 -12 130 -51 242 -78 178 -42 398 -71 625 -81 77 -3 184
-8 238 -10 54 -3 106 -1 116 4 9 5 66 12 127 15 60 3 122 8 138 12 63 11 253
74 300 99 27 14 58 25 68 25 10 0 18 5 18 10 0 6 26 22 58 36 126 56 148 67
174 85 14 11 33 19 42 19 14 0 232 124 246 140 3 3 46 34 95 70 88 63 150 111
230 180 79 67 249 246 303 318 30 39 60 72 67 72 31 0 185 232 185 278 0 10
16 37 35 59 27 32 40 40 57 35 13 -3 26 -9 29 -15 7 -10 33 -10 99 -1 42 6
168 -10 200 -26 8 -5 37 -19 63 -31 27 -13 64 -39 82 -58 22 -23 43 -34 64
-35 23 -1 31 -7 36 -26 4 -14 11 -31 17 -37 13 -16 52 -17 77 -1 15 9 28 8 65
-6 39 -15 45 -21 41 -39 -26 -106 -26 -214 1 -250 18 -24 114 -84 114 -72 0 3
12 -1 28 -9 15 -8 49 -22 75 -32 38 -13 48 -22 46 -38 -6 -78 -2 -85 59 -112
51 -23 231 -81 352 -113 25 -7 101 -30 170 -51 69 -21 240 -71 380 -110 140
-39 287 -84 325 -100 39 -15 88 -31 110 -35 37 -6 123 -31 260 -74 33 -11 123
-38 200 -61 77 -22 210 -63 295 -90 320 -102 376 -119 410 -125 19 -4 52 -16
74 -26 21 -10 43 -16 47 -13 5 3 9 0 9 -5 0 -6 13 -11 28 -11 15 0 33 -5 40
-12 12 -12 20 -14 90 -24 23 -3 42 -10 42 -16 0 -5 4 -7 9 -3 5 3 12 1 16 -5
3 -5 15 -10 26 -10 10 0 57 -13 103 -29 46 -16 87 -26 91 -23 3 4 9 1 13 -5 4
-7 19 -14 32 -17 25 -5 75 -18 220 -57 120 -32 319 -100 326 -110 3 -5 9 -7
14 -4 5 3 23 -1 40 -10 16 -8 31 -15 32 -14 8 6 138 -44 138 -52 0 -6 5 -7 10
-4 6 4 21 0 33 -8 12 -8 47 -17 78 -21 50 -6 61 -4 94 18 46 31 71 32 148 5
43 -15 71 -19 101 -15 47 8 96 27 96 38 0 5 10 8 23 8 44 0 150 131 131 161
-3 5 0 9 5 9 6 0 11 -7 11 -15 0 -11 7 -10 35 6 19 12 35 27 35 35 0 8 6 17
14 20 8 3 16 14 19 25 4 15 14 19 44 19 40 0 49 -6 97 -65 20 -25 27 -28 47
-18 21 9 28 7 49 -17 28 -30 108 -61 138 -53 10 2 50 0 89 -5 39 -6 86 -7 104
-3 28 6 36 3 44 -14 6 -12 21 -20 36 -21 13 0 29 -3 34 -6 31 -19 123 -5 139
20 3 6 13 43 21 84 8 40 22 102 30 138 30 121 30 124 -3 159 -33 36 -59 41
-109 20 -30 -12 -34 -11 -58 11 -14 13 -42 48 -61 77 -22 34 -42 53 -55 53
-10 0 -36 9 -56 20 -23 12 -57 20 -85 20 -58 0 -192 -27 -196 -40 -6 -16 -79
27 -101 59 -16 22 -19 35 -12 53 11 30 -3 58 -29 58 -11 0 -20 3 -21 8 0 4 -3
18 -5 32 -3 14 -7 43 -9 65 -10 102 -14 118 -41 146 -15 16 -31 29 -35 29 -4
0 -41 16 -82 35 -41 19 -80 35 -85 35 -6 0 -22 5 -35 11 -19 8 -23 17 -20 37
2 15 5 46 7 68 2 39 0 42 -33 54 -20 7 -58 23 -86 35 -27 12 -88 33 -135 45
-47 12 -134 37 -195 56 -60 19 -118 34 -127 34 -9 0 -20 5 -23 10 -4 6 -10 8
-15 5 -5 -3 -60 10 -122 29 -189 58 -281 85 -405 117 -65 16 -143 39 -174 49
-31 11 -69 21 -85 24 -15 3 -64 17 -108 30 -67 21 -104 32 -176 51 -3 1 -23 7
-45 13 -106 32 -223 65 -255 72 -32 8 -190 53 -350 101 -36 11 -105 31 -155
45 -49 13 -105 32 -123 40 -19 9 -36 13 -39 10 -4 -3 -11 -2 -17 3 -6 5 -37
14 -68 21 -32 6 -58 15 -58 20 0 5 -7 7 -15 4 -8 -4 -15 -1 -15 6 0 7 -8 9
-20 5 -12 -4 -20 -2 -20 5 0 6 -4 8 -10 5 -8 -5 -85 15 -248 66 -18 6 -44 13
-59 15 -14 3 -34 9 -44 15 -10 5 -31 11 -46 14 -58 9 -110 22 -124 30 -7 5
-20 10 -29 11 -8 1 -62 16 -120 34 -58 17 -118 35 -135 40 -16 4 -86 23 -155
43 -164 46 -190 51 -190 38 0 -6 -5 -11 -11 -11 -6 0 -8 8 -4 19 5 16 -3 20
-61 31 l-67 13 -37 -40 c-20 -21 -39 -46 -42 -53 -4 -13 -23 -11 -119 13 -63
15 -126 27 -141 27 -40 0 -95 -60 -135 -147 -18 -40 -39 -73 -46 -73 -38 0
-85 22 -95 45 -14 31 -55 42 -85 23 -16 -11 -31 -12 -52 -6 -16 5 -60 6 -97 2
-65 -6 -183 10 -174 24 2 4 -2 16 -10 27 -8 10 -14 14 -14 9 0 -6 5 -15 12
-22 9 -9 9 -12 -2 -12 -28 0 -115 48 -154 84 -25 23 -56 40 -85 47 -58 13 -69
23 -63 57 2 15 2 24 -2 21 -4 -4 -8 -21 -8 -38 -1 -30 -8 -38 -21 -25 -3 3 1
27 9 52 20 63 30 272 15 301 -7 12 -12 60 -12 107 0 127 -34 387 -63 484 -43
144 -53 172 -96 269 -77 171 -172 333 -239 406 -168 181 -305 305 -339 305
-10 0 -39 15 -63 33 -56 43 -215 134 -299 171 -36 16 -73 33 -84 38 -86 45
-358 124 -455 133 -34 3 -90 14 -124 25 -34 10 -84 21 -110 24 -27 3 -52 8
-56 10 -4 3 -65 8 -136 11 -72 4 -133 9 -136 11 -3 2 -8 2 -10 0z m247 -210
c43 -3 120 -8 169 -11 100 -6 287 -36 411 -65 221 -52 453 -179 693 -380 242
-203 363 -344 460 -537 54 -108 123 -342 136 -460 4 -32 10 -74 14 -93 16 -80
-14 -414 -49 -553 -33 -129 -141 -345 -208 -416 -34 -35 -54 -95 -50 -146 2
-29 0 -56 -6 -63 -6 -6 -27 -32 -46 -58 -106 -141 -424 -430 -566 -514 -24
-14 -74 -46 -112 -72 -37 -27 -71 -48 -75 -48 -3 0 -67 -34 -142 -75 -138 -77
-173 -92 -375 -165 -112 -41 -188 -64 -260 -80 -19 -4 -78 -17 -131 -28 -160
-34 -394 -47 -604 -34 -186 13 -222 16 -315 32 -30 5 -84 14 -120 20 -36 6
-99 20 -140 32 -41 11 -88 24 -105 28 -34 8 -100 29 -130 41 -11 4 -51 20 -90
35 -172 66 -383 178 -492 261 -25 19 -67 46 -92 59 -103 54 -297 263 -344 370
-15 34 -27 68 -27 76 0 7 -16 47 -36 88 -75 155 -150 446 -161 620 -6 107 6
188 63 410 53 207 78 275 154 414 39 70 70 130 70 133 0 27 230 323 251 323 5
0 9 4 9 9 0 9 19 28 185 186 75 72 291 226 335 240 11 3 20 10 20 15 0 4 17
15 38 23 21 8 44 22 51 31 8 9 17 16 22 16 5 0 64 26 132 59 197 94 461 188
577 204 19 3 64 12 100 20 61 15 91 20 185 32 22 2 51 7 65 11 14 3 117 8 230
11 113 3 207 7 209 9 2 2 7 2 11 -1 3 -2 42 -6 86 -9z"/>
<path d="M2693 5263 c-18 -6 -16 -33 1 -33 8 0 16 -6 19 -14 4 -11 -4 -9 -29
6 -19 11 -34 24 -34 29 0 9 -22 6 -74 -8 -23 -6 -9 -20 24 -25 19 -2 24 -8 23
-26 -2 -16 5 -26 22 -34 14 -6 24 -17 23 -24 -2 -7 5 -19 16 -27 17 -13 16
-14 -15 -30 -19 -9 -32 -17 -29 -17 58 -10 86 -7 103 8 15 12 21 14 24 5 3 -9
10 -10 23 -3 10 5 29 10 42 10 46 -1 88 12 88 27 0 9 6 13 15 9 10 -4 15 1 15
15 0 15 -5 19 -16 15 -9 -3 -27 -6 -40 -6 -14 0 -22 -4 -19 -10 4 -6 -7 -10
-26 -10 -25 0 -29 3 -20 14 8 10 8 16 -1 23 -19 15 -67 22 -71 10 -2 -6 -9 -7
-16 -3 -11 7 -11 10 0 16 10 7 10 11 0 24 -11 12 -11 19 -2 30 10 12 8 17 -8
25 -11 6 -21 11 -23 10 -2 0 -9 -3 -15 -6z"/>
<path d="M2808 5265 c-4 -4 -4 -14 -1 -23 5 -11 2 -14 -8 -10 -8 3 -24 -1 -34
-9 -17 -12 -18 -15 -5 -23 8 -5 23 -7 33 -4 9 3 17 1 17 -3 0 -5 15 -14 33
-21 35 -12 97 -6 97 9 0 5 7 9 15 9 8 0 15 5 15 11 0 11 17 9 68 -6 16 -6 22
-3 22 9 0 10 -6 13 -15 10 -8 -4 -15 -1 -15 6 0 8 -12 10 -38 5 -29 -5 -42 -2
-52 9 -15 19 -50 21 -51 4 0 -7 -4 -4 -8 6 -4 11 -15 20 -25 22 -12 2 -16 -2
-12 -12 7 -19 -4 -18 -18 2 -6 8 -14 12 -18 9z"/>
<path d="M3072 5224 c10 -10 20 -15 24 -12 3 4 -5 12 -18 18 -22 12 -22 12 -6
-6z"/>
<path d="M3145 5230 c-8 -13 35 -13 55 0 11 7 7 10 -17 10 -17 0 -35 -4 -38
-10z"/>
<path d="M2489 5206 c16 -19 44 -21 39 -3 -3 6 -15 14 -28 15 -21 3 -22 2 -11
-12z"/>
<path d="M3280 5199 c0 -5 5 -7 10 -4 6 3 10 8 10 11 0 2 -4 4 -10 4 -5 0 -10
-5 -10 -11z"/>
<path d="M2444 5191 c4 -5 -7 -12 -23 -16 -22 -5 -28 -11 -24 -22 5 -12 1 -14
-18 -8 -33 10 -31 10 -55 2 -15 -5 -21 -16 -21 -37 0 -17 5 -29 11 -27 6 2 17
-3 25 -10 7 -8 21 -11 30 -8 39 16 46 17 29 2 -10 -8 -18 -22 -18 -31 0 -18
-15 -22 -25 -6 -3 6 -15 10 -26 10 -10 0 -19 7 -19 15 0 16 -43 31 -59 20 -18
-11 -12 -24 14 -31 31 -8 51 -39 33 -50 -7 -4 -22 -9 -33 -10 -28 -3 -101 -47
-87 -52 13 -4 101 22 140 40 12 6 23 21 23 32 1 15 2 17 6 5 3 -11 11 -15 24
-12 13 4 18 1 14 -8 -6 -17 44 -42 59 -30 6 5 26 12 44 16 17 3 32 10 32 15 0
5 14 11 31 15 29 7 48 29 35 42 -3 4 -22 2 -41 -4 -19 -6 -37 -7 -40 -3 -3 5
0 10 7 12 6 2 9 12 5 21 -8 21 -39 35 -44 20 -2 -5 -15 -8 -29 -5 -30 6 -26
28 5 24 13 -2 20 1 19 9 -5 21 20 21 41 0 15 -15 21 -17 21 -7 0 8 -5 18 -10
21 -6 4 -8 10 -5 15 7 11 -20 20 -31 10 -14 -12 -54 -22 -54 -13 0 5 10 13 22
18 30 14 35 35 8 35 -12 0 -19 -4 -16 -9z"/>
<path d="M3228 5193 c7 -3 16 -2 19 1 4 3 -2 6 -13 5 -11 0 -14 -3 -6 -6z"/>
<path d="M2550 5170 c-14 -4 -19 -8 -11 -9 7 -1 11 -7 7 -16 -4 -10 1 -15 14
-15 11 0 20 7 20 15 0 8 3 15 6 15 3 0 12 -7 20 -15 17 -17 34 -20 34 -6 0 12
-41 41 -55 40 -5 -1 -21 -5 -35 -9z"/>
<path d="M2972 5170 c-4 -3 -8 -17 -8 -31 -2 -25 0 -26 47 -21 33 3 49 1 49
-7 0 -6 -5 -11 -12 -11 -6 0 -3 -7 8 -16 13 -11 15 -17 7 -20 -7 -3 -13 -12
-13 -20 0 -8 -6 -11 -15 -8 -8 4 -15 1 -15 -6 0 -7 -7 -10 -16 -6 -8 3 -23 2
-33 -3 -22 -12 -39 -1 -45 29 -2 14 -5 27 -5 29 -1 2 -8 -2 -16 -9 -8 -6 -19
-9 -25 -5 -5 3 -10 1 -10 -5 0 -6 -4 -8 -10 -5 -5 3 -10 1 -10 -6 0 -7 -10
-10 -28 -6 -15 3 -34 2 -41 -2 -19 -12 16 -24 63 -21 36 2 39 0 27 -14 -8 -9
-22 -14 -32 -11 -28 9 -65 -4 -66 -25 -1 -16 4 -18 43 -15 34 3 44 0 44 -12 0
-10 -6 -13 -16 -9 -10 4 -13 2 -8 -6 5 -7 -1 -9 -20 -6 -28 6 -36 -6 -10 -16
27 -10 56 -7 48 6 -5 7 -2 9 8 5 18 -6 61 20 53 33 -3 4 -2 15 1 24 5 13 9 14
20 5 15 -13 100 -4 109 11 3 5 20 10 38 10 18 1 51 2 75 3 23 1 42 -3 42 -8 0
-6 -17 -11 -37 -11 -72 -3 -87 -13 -91 -58 -1 -16 -4 -31 -6 -34 -9 -8 -26 10
-26 28 0 10 -3 20 -7 23 -5 2 -3 2 4 1 6 -2 14 4 17 12 9 23 -31 17 -48 -7
-11 -16 -22 -20 -40 -17 -14 3 -26 2 -26 -3 0 -4 -9 -11 -20 -14 -11 -4 -18
-11 -14 -16 3 -6 0 -9 -7 -8 -8 1 -22 -1 -31 -5 -16 -7 -16 -10 -2 -23 8 -9
13 -22 10 -29 -9 -23 4 -46 19 -34 7 6 16 7 19 2 3 -5 21 -8 41 -7 26 0 35 -3
35 -16 0 -10 11 -19 31 -23 49 -9 56 -8 85 19 28 26 58 32 70 14 4 -7 0 -9
-14 -5 -11 4 -23 3 -26 -2 -9 -14 30 -21 62 -12 15 5 20 9 11 9 -28 2 -31 31
-5 41 28 10 41 27 41 54 0 11 6 21 14 24 11 4 12 -2 7 -24 -6 -27 -5 -28 9
-10 16 22 20 52 7 58 -5 2 -12 16 -16 31 -6 25 -5 27 12 18 11 -6 25 -24 32
-41 13 -32 30 -40 30 -15 0 8 -4 15 -10 15 -5 0 -7 7 -4 15 4 8 14 15 24 15
11 0 20 10 24 26 9 35 2 40 -23 15 -13 -13 -21 -16 -25 -8 -3 9 -5 9 -5 0 -1
-7 -11 -12 -23 -12 -17 1 -19 2 -5 6 23 6 22 23 -2 23 -21 0 -33 22 -25 45 8
20 -16 19 -31 -1 -10 -14 -14 -12 -33 20 -21 36 -36 44 -46 27 -7 -11 -46 -2
-46 11 0 5 -6 8 -12 6 -7 -2 -13 2 -13 7 0 6 12 9 28 9 18 -1 27 3 27 13 0 13
3 13 15 3 17 -14 20 -3 5 20 -8 13 -11 12 -24 -5 -13 -16 -15 -17 -16 -4 0 13
-12 16 -71 15 -39 -1 -74 -3 -77 -6z m80 -362 c-10 -11 -25 -16 -35 -13 -25
10 -9 32 24 32 29 0 30 -1 11 -19z"/>
<path d="M3310 5152 c0 -4 17 -21 38 -38 27 -23 40 -28 48 -20 15 16 6 36 -17
36 -10 0 -19 6 -19 13 0 7 -11 14 -25 15 -14 1 -25 -2 -25 -6z"/>
<path d="M3424 5124 c1 -21 10 -42 20 -49 9 -7 13 -16 8 -19 -5 -3 -15 1 -22
9 -18 22 -30 18 -30 -8 0 -21 4 -23 31 -19 18 3 40 13 50 23 24 24 24 28 1 22
-14 -3 -20 4 -28 33 -12 51 -34 57 -30 8z"/>
<path d="M3238 5133 c-16 -2 -28 -8 -28 -12 0 -4 14 -6 30 -3 17 2 30 8 30 13
0 5 -1 8 -2 8 -2 -1 -15 -4 -30 -6z"/>
<path d="M2564 5103 c-2 -7 -6 -20 -9 -28 -3 -11 4 -15 25 -15 26 0 30 3 30
29 0 24 -4 29 -21 28 -12 -1 -23 -7 -25 -14z"/>
<path d="M2634 5111 c4 -5 0 -11 -6 -14 -9 -3 -7 -7 6 -12 11 -5 21 -3 26 6
11 16 4 29 -16 29 -8 0 -13 -4 -10 -9z"/>
<path d="M3231 5101 c-10 -7 -10 -10 -1 -16 6 -4 16 -3 22 3 13 13 -4 23 -21
13z"/>
<path d="M3310 5100 c8 -5 20 -10 25 -10 6 0 3 5 -5 10 -8 5 -19 10 -25 10 -5
0 -3 -5 5 -10z"/>
<path d="M2992 5087 c-16 -19 2 -40 27 -32 17 5 19 10 11 26 -12 22 -23 24
-38 6z"/>
<path d="M3355 5070 c3 -5 8 -10 11 -10 2 0 4 5 4 10 0 6 -5 10 -11 10 -5 0
-7 -4 -4 -10z"/>
<path d="M3555 5070 c-3 -4 -14 -6 -25 -3 -14 4 -20 0 -20 -12 0 -14 5 -16 28
-11 15 4 37 7 50 7 13 -1 21 3 18 8 -8 12 -45 21 -51 11z"/>
<path d="M3283 5040 c1 -12 8 -20 19 -20 21 0 23 11 6 28 -18 18 -27 15 -25
-8z"/>
<path d="M2197 5020 c-9 -11 -13 -20 -9 -20 4 0 0 -4 -8 -10 -27 -17 0 -24 29
-7 16 9 41 17 55 17 14 0 26 5 26 10 0 6 -13 10 -28 10 -15 0 -32 4 -38 10 -6
6 -16 3 -27 -10z"/>
<path d="M2740 5029 c0 -5 -5 -7 -11 -4 -5 4 -24 1 -40 -6 -22 -9 -27 -14 -17
-20 8 -6 18 -2 26 8 9 13 15 14 24 5 18 -18 38 -14 38 8 0 11 -4 20 -10 20 -5
0 -10 -5 -10 -11z"/>
<path d="M3413 5023 c-7 -2 -13 -9 -13 -14 0 -6 5 -7 10 -4 6 3 10 1 10 -4 0
-6 5 -11 10 -11 6 0 10 9 10 20 0 20 -5 23 -27 13z"/>
<path d="M3517 5010 c3 -13 14 -20 29 -20 18 0 22 4 18 18 -5 16 -5 16 9 0 8
-10 17 -15 20 -11 13 13 -16 33 -48 33 -28 0 -32 -3 -28 -20z"/>
<path d="M3730 5020 c0 -5 5 -10 11 -10 5 0 7 5 4 10 -3 6 -8 10 -11 10 -2 0
-4 -4 -4 -10z"/>
<path d="M2575 4983 c-54 -12 -124 -46 -133 -66 -9 -18 -11 -19 -11 -4 -1 23
-22 22 -28 -3 -4 -13 -14 -20 -32 -20 -31 -1 -61 -21 -61 -43 0 -23 -16 -29
-30 -12 -16 19 -34 20 -27 1 8 -21 -4 -28 -18 -9 -11 15 -13 15 -23 -4 -6 -11
-25 -26 -42 -33 -16 -7 -30 -16 -30 -21 0 -16 38 -10 80 12 31 16 44 19 53 10
8 -8 7 -11 -3 -11 -8 0 -21 -4 -29 -9 -12 -8 -12 -12 -2 -25 11 -13 11 -16 -2
-16 -8 0 -17 6 -20 13 -2 6 -8 8 -13 4 -16 -15 28 -38 61 -32 16 2 24 2 18 -1
-16 -7 -17 -24 -1 -24 6 0 20 -7 29 -16 17 -16 19 -15 28 7 5 13 19 34 32 46
28 25 79 47 79 33 0 -5 -8 -11 -19 -15 -22 -7 -67 -55 -75 -83 -5 -15 -1 -21
19 -26 14 -4 30 -4 35 -1 4 3 10 0 12 -7 7 -21 57 1 73 32 9 17 20 30 25 30
14 0 12 -11 -4 -29 -8 -9 -21 -33 -30 -54 -15 -38 -15 -38 7 -31 25 7 42 21
42 34 0 35 128 158 183 174 12 4 22 14 22 22 0 11 4 12 19 4 26 -14 31 -13 31
6 0 11 6 15 19 11 31 -8 47 8 27 28 -15 16 -19 16 -50 1 -19 -9 -45 -15 -58
-14 -17 2 -22 -1 -20 -15 4 -22 -24 -33 -43 -17 -12 10 -19 10 -33 -2 -9 -9
-27 -19 -39 -22 -35 -11 -28 14 7 27 17 6 30 15 30 20 0 4 4 6 9 3 5 -3 14 1
21 9 7 8 25 15 41 15 16 0 29 4 29 9 0 5 13 11 30 14 21 5 28 11 24 21 -4 12
-11 13 -31 5 -32 -12 -39 -6 -18 15 14 14 15 16 1 16 -8 0 -20 -8 -25 -19 -10
-18 -58 -37 -68 -27 -3 3 9 18 26 35 17 17 31 32 31 34 0 2 -13 4 -30 3 -23
-1 -30 -6 -30 -22 0 -18 -5 -20 -27 -16 -21 4 -25 2 -20 -12 5 -14 3 -15 -12
-6 -14 7 -27 6 -48 -5 -15 -8 -34 -15 -41 -15 -9 0 -11 -7 -6 -22 6 -20 5 -21
-8 -10 -12 10 -23 9 -57 -3 -32 -11 -42 -11 -39 -2 3 6 18 17 35 22 16 6 36
15 44 21 8 6 27 14 43 18 17 4 46 14 65 23 20 9 39 16 42 15 4 -1 5 8 2 18 -3
11 -8 19 -12 19 -3 -1 -15 -3 -26 -6z m55 -104 c0 -6 -7 -9 -15 -5 -8 3 -15 1
-15 -4 0 -6 -5 -10 -11 -10 -6 0 -33 -11 -60 -25 -65 -32 -63 -17 4 22 53 32
97 42 97 22z"/>
<path d="M3456 4978 c3 -4 14 -8 24 -8 10 0 21 4 24 8 3 5 -8 9 -24 9 -16 0
-27 -4 -24 -9z"/>
<path d="M2735 4970 c3 -5 10 -10 16 -10 5 0 9 5 9 10 0 6 -7 10 -16 10 -8 0
-12 -4 -9 -10z"/>
<path d="M2342 4962 c-10 -3 -10 -7 -1 -18 9 -11 7 -16 -11 -22 -21 -8 -21 -9
-5 -15 12 -5 25 1 41 18 13 14 24 28 24 29 0 7 -35 13 -48 8z"/>
<path d="M3603 4962 c-17 -2 -23 -10 -23 -28 0 -33 -1 -37 -11 -56 -6 -11 -4
-18 5 -21 21 -8 24 0 19 42 -6 46 8 59 42 37 19 -12 25 -13 25 -4 0 18 -31 34
-57 30z"/>
<path d="M3730 4950 c0 -5 5 -10 10 -10 6 0 10 5 10 10 0 6 -4 10 -10 10 -5 0
-10 -4 -10 -10z"/>
<path d="M2283 4938 c-18 -6 -33 -15 -33 -19 0 -5 -7 -9 -15 -9 -8 0 -15 -5
-15 -11 0 -7 -8 -18 -17 -26 -16 -12 -15 -13 12 -7 17 4 41 11 55 16 20 7 22
11 10 18 -13 8 -13 10 0 10 8 0 21 9 28 20 7 11 11 20 10 19 -2 -1 -18 -6 -35
-11z"/>
<path d="M3707 4909 c6 -29 4 -31 -23 -28 -16 1 -40 -3 -54 -10 -21 -10 -18
-11 25 -5 46 5 100 11 118 13 17 2 5 20 -23 31 -16 7 -30 16 -30 21 0 5 -4 9
-10 9 -5 0 -7 -13 -3 -31z"/>
<path d="M3485 4920 c-19 -8 -19 -9 3 -9 12 -1 22 4 22 9 0 6 -1 10 -2 9 -2 0
-12 -4 -23 -9z"/>
<path d="M3820 4911 c0 -15 45 -18 58 -4 11 11 6 13 -23 13 -19 0 -35 -4 -35
-9z"/>
<path d="M3415 4888 c-4 -10 -18 -18 -30 -18 -13 0 -27 -5 -30 -11 -4 -6 0 -9
8 -7 9 2 16 0 16 -4 3 -26 0 -28 -19 -18 -15 8 -20 8 -20 -1 0 -8 -4 -8 -12
-2 -9 6 -28 2 -58 -13 -42 -21 -41 -29 4 -24 16 1 16 0 5 -13 -8 -8 -18 -13
-22 -10 -4 3 -25 -3 -45 -13 -22 -10 -60 -17 -94 -17 -34 0 -55 -4 -51 -10 3
-5 0 -7 -8 -5 -8 3 -24 1 -36 -3 -17 -6 -23 -5 -23 5 0 8 -7 16 -15 20 -28 10
-210 -94 -221 -126 -3 -10 -10 -18 -16 -18 -14 0 -68 -53 -68 -67 0 -7 -8 -16
-17 -21 -15 -9 -15 -11 -1 -26 22 -21 34 -20 58 4 12 12 26 18 32 14 7 -5 4
-13 -12 -26 -18 -15 -20 -21 -10 -33 15 -18 51 -20 68 -3 21 21 35 -4 21 -36
-11 -23 -10 -28 7 -40 16 -12 21 -11 36 7 10 11 18 24 18 29 0 4 5 8 10 8 7 0
6 -8 -2 -22 -21 -39 -20 -66 2 -73 26 -8 41 1 33 22 -4 11 -3 14 5 9 7 -4 12
-2 12 5 0 24 13 -2 17 -33 4 -37 1 -34 33 -42 14 -3 20 -3 13 0 -7 3 -9 12 -6
20 9 24 23 15 23 -16 0 -31 33 -60 45 -40 9 15 28 12 22 -4 -4 -10 7 -17 39
-25 24 -6 44 -15 44 -20 0 -6 9 -13 20 -16 11 -3 20 -9 20 -13 0 -10 -61 -7
-68 4 -4 5 -19 15 -33 21 -26 11 -27 10 -24 -20 1 -18 -1 -36 -4 -42 -10 -18
-10 -75 0 -75 5 0 9 9 9 20 0 13 5 18 15 14 8 -4 15 -1 15 5 0 19 42 12 47 -7
2 -10 16 -25 30 -34 14 -8 21 -18 15 -21 -5 -4 -21 2 -35 13 -22 18 -26 18
-31 4 -4 -10 -14 -14 -26 -11 -11 3 -20 1 -20 -4 0 -5 -7 -9 -15 -9 -8 0 -15
-6 -15 -13 0 -12 -12 -20 -78 -52 -31 -15 -36 -35 -8 -35 17 0 71 -58 62 -67
-4 -5 -14 1 -22 11 -7 11 -17 16 -21 12 -9 -9 38 -46 50 -39 5 3 8 17 7 31 -1
15 -2 41 -1 57 2 42 21 12 21 -32 0 -22 5 -33 14 -33 8 0 16 -4 18 -10 2 -5
14 -11 28 -12 29 -3 54 -24 45 -37 -9 -16 15 -24 31 -10 15 12 14 27 -3 83 -3
10 -1 16 4 13 5 -3 15 -28 23 -56 13 -48 31 -68 51 -55 9 5 6 22 -9 63 -3 8 0
12 8 9 7 -2 15 -17 17 -34 2 -16 11 -36 18 -44 13 -12 17 -12 28 4 10 13 16
15 21 8 4 -7 2 -12 -3 -12 -6 0 -11 -4 -11 -10 0 -5 8 -10 18 -10 10 0 23 -5
30 -12 9 -9 12 -8 12 4 0 10 10 18 23 20 16 2 23 11 25 31 4 32 -17 44 -48 27
-18 -10 -21 -9 -18 2 3 7 19 14 36 16 22 2 29 7 25 18 -9 24 11 16 40 -17 23
-27 30 -29 43 -18 13 10 17 10 25 -2 5 -8 9 -17 9 -21 0 -5 9 -8 19 -8 11 0
23 -4 26 -10 3 -5 12 -10 18 -10 8 0 8 3 2 8 -6 4 -17 27 -24 52 -7 24 -20 50
-30 56 -9 7 -12 16 -8 21 5 4 17 -3 28 -17 10 -14 26 -32 35 -41 9 -10 11 -18
5 -20 -6 -3 -4 -16 6 -36 16 -34 38 -47 26 -16 -4 11 -3 14 6 9 9 -6 10 -1 5
18 -5 21 -3 25 10 20 9 -3 16 -14 16 -24 0 -10 10 -21 23 -25 13 -4 17 -8 10
-11 -20 -8 15 -54 41 -54 19 0 18 2 -9 25 -16 13 -24 24 -18 25 9 0 6 11 -7
35 -11 20 -20 41 -20 48 1 16 39 -34 40 -51 0 -7 12 -17 26 -22 14 -6 23 -14
20 -18 -3 -5 5 -20 17 -34 17 -20 27 -24 42 -18 18 7 18 8 -7 15 -20 5 -27 13
-25 28 1 14 -6 25 -20 32 -21 9 -27 22 -20 42 1 5 6 7 11 5 14 -5 35 19 29 34
-10 27 15 14 38 -21 13 -19 27 -35 32 -35 12 0 8 30 -9 55 -21 32 -4 32 25 1
13 -14 29 -22 37 -19 10 4 12 0 8 -11 -11 -28 40 -72 65 -57 8 5 -5 25 -44 64
-30 31 -55 60 -55 63 0 4 -7 16 -17 26 -34 37 5 16 45 -24 22 -24 46 -47 52
-53 6 -5 21 -23 34 -39 18 -22 27 -26 41 -19 15 9 13 12 -14 23 -17 7 -31 16
-31 21 0 8 -10 21 -72 93 -26 30 -34 46 -23 46 10 0 54 -55 55 -67 0 -7 4 -13
8 -13 5 0 19 -9 32 -20 27 -23 42 -22 46 4 1 10 5 20 8 23 2 3 -4 20 -15 39
-22 40 -14 44 23 9 32 -29 107 -70 115 -62 3 3 -11 13 -32 21 -20 9 -34 19
-31 24 3 5 -19 33 -49 62 -56 55 -67 77 -40 77 8 0 15 -6 15 -12 0 -29 128
-135 178 -147 26 -7 30 8 3 17 -24 7 -128 89 -152 119 -44 55 -14 45 48 -17
37 -37 74 -67 83 -67 8 0 -11 24 -43 53 -43 38 -57 57 -52 69 6 14 17 16 83
11 42 -3 89 -11 104 -19 31 -16 38 -17 38 -6 0 24 -115 53 -208 53 -37 0 -52
4 -49 12 3 7 10 11 16 10 6 -2 11 2 11 8 0 7 -12 9 -35 5 -31 -6 -35 -4 -35
14 0 20 15 28 22 11 2 -4 12 -5 23 0 17 6 17 8 3 8 -10 1 -18 5 -18 10 0 10
95 7 129 -4 15 -5 21 -4 17 3 -3 6 -19 13 -35 17 -16 3 -37 15 -47 26 -17 18
-16 19 12 19 l29 0 -29 15 c-15 8 -35 15 -42 15 -8 0 -14 5 -14 10 0 6 7 10
16 10 20 0 9 16 -16 23 -13 3 -18 1 -13 -6 4 -7 -2 -8 -18 -3 -13 5 -32 8 -41
9 -12 1 -14 5 -8 11 15 15 12 24 -10 31 -11 3 -20 11 -20 16 0 15 37 10 44 -6
3 -8 11 -15 18 -14 10 0 10 2 1 6 -7 2 -13 11 -13 19 0 8 -10 18 -22 23 -29
10 -149 2 -165 -11 -7 -5 -17 -7 -23 -3 -14 9 -52 -4 -45 -16 4 -5 -7 -6 -25
-3 -26 6 -30 4 -30 -15 0 -22 -14 -28 -25 -11 -3 6 -21 10 -38 10 -29 1 -30 2
-14 14 16 13 16 14 -5 20 -33 8 -40 7 -33 -4 4 -6 -8 -10 -30 -10 -30 0 -34 2
-23 13 7 8 27 16 43 20 17 3 38 9 48 12 12 5 17 2 17 -8 0 -20 33 -31 63 -21
12 4 27 8 32 9 6 0 30 4 55 9 53 8 93 13 135 15 29 2 29 2 10 17 -14 10 -32
13 -62 8 -24 -3 -43 -2 -43 2 0 5 12 10 26 10 60 4 42 27 -21 27 -38 0 -44 3
-40 17 6 19 -26 33 -52 23 -13 -5 -11 -9 8 -24 29 -21 21 -33 -12 -20 -13 5
-20 10 -15 10 5 1 3 8 -4 16 -13 15 -90 21 -104 8 -14 -15 -44 -12 -60 6 -16
18 -15 18 30 13 34 -3 45 -2 40 6 -5 9 7 10 41 6 46 -5 47 -5 28 11 -11 9 -33
19 -48 22 -17 4 -24 9 -17 13 6 4 -12 10 -41 14 -32 4 -56 3 -62 -3 -6 -6 -24
-11 -41 -11 -40 0 -20 21 25 26 18 2 34 6 37 8 6 7 -8 26 -19 26 -6 0 -8 -3
-6 -7 3 -5 -24 -7 -60 -7 -45 1 -66 -2 -70 -12 -2 -7 -17 -13 -31 -12 -15 1
-35 -2 -44 -6 -12 -6 -18 -4 -18 6 0 13 128 46 198 51 12 1 22 5 22 9 0 11
-36 28 -59 28 -12 0 -21 4 -21 10 0 5 -9 14 -19 20 -25 13 -124 -6 -115 -22 4
-7 -6 -9 -30 -6 -20 2 -36 0 -36 -4 0 -12 45 -14 128 -4 59 7 43 -11 -18 -19
-27 -4 -52 -11 -56 -16 -3 -5 -19 -9 -35 -9 -18 0 -28 -4 -24 -10 3 -6 -5 -11
-19 -11 -25 -1 -36 -3 -53 -9 -5 -1 -12 -2 -18 0 -5 1 -15 -7 -22 -17 -9 -12
-24 -17 -47 -15 -42 4 -77 -14 -134 -68 -24 -22 -47 -40 -52 -40 -4 0 -11 -6
-13 -12 -3 -7 -6 -3 -6 10 -1 16 -7 22 -23 22 -31 -1 -53 -19 -66 -55 -6 -16
-11 -24 -11 -17 -1 6 -8 12 -16 12 -8 0 -15 7 -15 15 0 8 6 15 13 15 19 0 42
41 27 50 -9 6 -9 9 0 15 6 4 14 4 17 1 9 -8 43 24 43 41 0 7 12 18 28 24 57
23 91 42 87 50 -8 13 14 21 37 13 l21 -6 -22 -17 c-20 -16 -21 -19 -6 -31 12
-10 21 -10 40 -2 26 12 33 36 15 47 -15 9 -2 25 14 19 8 -3 27 1 43 9 15 8 41
12 57 10 23 -3 27 -1 22 13 -4 12 -2 15 9 10 8 -3 15 -1 15 4 0 6 13 10 28 10
18 0 29 5 29 15 0 8 -5 11 -10 8 -5 -3 -8 0 -5 8 2 8 22 20 44 27 71 23 70 22
55 31 -18 12 -4 33 18 26 9 -3 26 2 37 11 18 15 18 15 -8 11 -15 -2 -29 1 -31
7 -3 6 -8 3 -12 -6z m182 -314 c2 -6 -32 -18 -84 -29 -48 -10 -108 -26 -133
-35 -25 -10 -54 -21 -65 -25 -20 -8 -20 -8 1 11 37 34 62 43 153 55 86 11 107
20 79 33 -7 3 0 4 16 3 16 -1 31 -7 33 -13z m-53 -61 c17 3 41 8 54 12 14 5
22 3 22 -4 0 -6 -8 -11 -18 -11 -10 0 -25 -9 -35 -20 -9 -11 -29 -20 -44 -20
-14 0 -34 -6 -42 -14 -23 -21 -75 -33 -69 -16 4 14 12 19 63 41 27 12 28 13 8
17 -12 2 -40 -6 -63 -18 -23 -12 -49 -20 -58 -18 -11 2 -3 10 23 21 22 10 51
24 65 31 17 9 31 10 44 3 10 -5 32 -7 50 -4z m-104 -142 c0 -13 -28 -74 -43
-93 -8 -10 -22 -18 -31 -18 -15 0 -15 3 -1 30 8 16 15 36 15 45 0 8 7 15 15
15 9 0 18 7 21 15 7 16 24 21 24 6z m595 -23 c9 -9 -37 -21 -61 -16 -9 1 -19
8 -21 13 -3 11 71 14 82 3z m-521 -33 c-29 -29 -34 -31 -34 -10 0 9 10 20 23
25 36 14 38 12 11 -15z m196 -21 c0 -12 -34 -33 -52 -34 -10 0 -18 -6 -18 -14
0 -8 -7 -17 -16 -20 -57 -22 -42 15 19 46 54 28 67 32 67 22z m87 -98 c-24
-25 -37 -25 -37 1 0 7 7 13 15 13 9 0 18 7 22 16 3 9 9 12 15 6 6 -6 0 -19
-15 -36z m73 -16 c-6 -11 -15 -20 -20 -20 -6 0 -10 -12 -10 -26 0 -21 -3 -24
-13 -15 -8 6 -16 8 -19 5 -3 -3 -9 -1 -12 4 -3 5 1 15 9 22 8 7 15 19 15 26 0
7 6 11 14 8 8 -3 17 -1 21 5 12 20 26 12 15 -9z m-405 -27 c-8 -31 -9 -38 -7
-72 2 -16 6 -21 17 -17 23 9 19 -31 -5 -44 -23 -12 -25 -9 -34 55 -6 41 11
105 27 105 5 0 6 -12 2 -27z m-66 -27 c-2 -34 -14 -72 -21 -61 -3 6 -6 29 -5
52 0 31 3 40 13 36 8 -3 14 -15 13 -27z m239 -72 c0 -30 -4 -44 -11 -41 -7 2
-12 9 -11 15 1 7 2 26 3 42 2 48 19 35 19 -16z m323 13 c-8 -8 11 -31 101
-125 23 -23 39 -45 35 -48 -7 -8 -47 14 -47 26 0 21 -65 69 -84 64 -16 -5 -18
-2 -14 20 3 15 1 29 -3 32 -11 6 -12 48 -2 57 4 4 10 2 14 -5 5 -7 4 -17 0
-21z m-204 -69 c5 -7 8 -24 7 -38 -1 -14 6 -34 15 -45 10 -11 22 -32 29 -47
10 -23 9 -28 -3 -28 -8 0 -22 17 -30 37 -9 21 -20 40 -25 43 -13 8 -25 90 -13
90 6 0 15 -6 20 -12z"/>
<path d="M3456 4038 c3 -5 10 -6 15 -3 13 9 11 12 -6 12 -8 0 -12 -4 -9 -9z"/>
<path d="M4020 4890 c0 -5 5 -10 11 -10 5 0 7 5 4 10 -3 6 -8 10 -11 10 -2 0
-4 -4 -4 -10z"/>
<path d="M3520 4865 c0 -18 -16 -20 -23 -2 -3 7 -6 5 -6 -6 -1 -13 5 -17 24
-14 14 2 25 6 25 10 0 4 0 12 0 17 0 6 -4 10 -10 10 -5 0 -10 -7 -10 -15z"/>
<path d="M3760 4850 c0 -6 -26 -10 -59 -10 -33 0 -63 -5 -67 -11 -4 -7 -25 -9
-60 -4 -47 6 -54 4 -54 -11 0 -13 -3 -14 -15 -4 -12 10 -18 10 -30 0 -39 -32
13 -41 90 -14 25 8 55 12 66 9 11 -4 26 -2 33 4 8 7 27 10 43 9 17 -1 42 6 57
15 30 20 33 27 11 27 -8 0 -15 -4 -15 -10z"/>
<path d="M3857 4849 c7 -7 15 -10 18 -7 3 3 -2 9 -12 12 -14 6 -15 5 -6 -5z"/>
<path d="M3445 4840 c3 -5 8 -10 11 -10 2 0 4 5 4 10 0 6 -5 10 -11 10 -5 0
-7 -4 -4 -10z"/>
<path d="M2150 4830 c0 -5 4 -10 9 -10 6 0 13 5 16 10 3 6 -1 10 -9 10 -9 0
-16 -4 -16 -10z"/>
<path d="M3890 4820 c-13 -8 -13 -10 2 -10 9 0 20 5 23 10 8 13 -5 13 -25 0z"/>
<path d="M3937 4819 c7 -7 15 -10 18 -7 3 3 -2 9 -12 12 -14 6 -15 5 -6 -5z"/>
<path d="M3814 4805 c6 -17 -9 -21 -19 -5 -3 6 -11 10 -16 10 -6 0 -7 -4 -4
-10 3 -5 -1 -10 -9 -10 -9 0 -16 6 -16 13 0 8 -3 8 -8 2 -4 -6 -20 -12 -36
-13 -60 -4 -47 -24 16 -23 69 2 98 5 98 14 0 4 7 7 15 7 20 0 19 16 -1 24 -23
9 -27 8 -20 -9z"/>
<path d="M2780 4791 c-8 -5 -36 -18 -62 -30 -34 -15 -48 -27 -48 -41 0 -14 -6
-19 -21 -17 -14 1 -27 -7 -38 -24 -9 -15 -28 -42 -42 -60 -34 -45 -43 -69 -24
-69 8 0 17 0 20 0 3 0 4 1 3 3 -2 1 7 13 20 27 12 13 22 29 22 36 0 7 14 21
30 31 17 9 30 21 30 25 0 4 5 8 11 8 7 0 18 8 25 17 7 10 16 14 21 9 4 -4 -2
-15 -14 -23 -13 -9 -23 -24 -23 -35 0 -10 -4 -17 -8 -14 -5 3 -15 -6 -22 -19
-7 -14 -20 -25 -28 -25 -9 0 -12 -3 -9 -6 3 -4 2 -14 -2 -23 -12 -21 14 -60
29 -45 6 6 12 21 15 34 2 13 14 31 25 42 11 10 20 25 20 33 0 8 9 15 19 15 11
0 35 14 53 30 18 17 38 30 45 30 6 0 18 6 25 13 8 6 22 17 33 23 34 19 30 34
-6 24 -24 -7 -35 -6 -41 3 -12 19 -9 32 4 19 16 -16 28 -15 28 3 0 17 -63 20
-90 6z"/>
<path d="M3375 4780 c-4 -6 7 -10 24 -10 17 0 31 5 31 10 0 6 -11 10 -24 10
-14 0 -28 -4 -31 -10z"/>
<path d="M4067 4783 c-4 -3 -7 -11 -7 -17 0 -6 5 -5 12 2 6 6 9 14 7 17 -3 3
-9 2 -12 -2z"/>
<path d="M3560 4773 c-63 -8 -54 -21 14 -22 59 0 65 2 52 14 -8 8 -18 14 -23
13 -4 0 -24 -3 -43 -5z"/>
<path d="M4126 4761 c-3 -5 4 -15 17 -24 18 -12 24 -12 35 -1 16 18 15 27 -3
21 -8 -4 -17 -2 -20 3 -8 12 -22 13 -29 1z"/>
<path d="M3813 4750 c-13 -5 -23 -14 -23 -20 0 -13 17 -13 25 0 5 8 11 7 21
-1 10 -8 17 -7 29 4 8 9 15 18 15 21 0 9 -42 6 -67 -4z"/>
<path d="M3890 4745 c-7 -8 -11 -16 -9 -18 2 -1 13 -7 23 -13 11 -6 22 -16 24
-24 3 -9 0 -10 -9 -4 -26 16 -109 21 -130 8 -7 -4 -9 -3 -5 4 3 6 1 14 -5 17
-5 4 -8 14 -5 22 4 10 1 13 -12 9 -36 -11 -88 -18 -120 -17 -46 2 -37 -21 13
-33 20 -5 46 -17 56 -27 14 -14 27 -18 47 -13 43 10 44 10 47 -9 3 -14 -1 -17
-13 -12 -42 17 -45 15 -19 -9 24 -22 35 -26 65 -20 35 6 36 5 17 -9 -22 -17
-23 -15 30 -32 8 -2 19 5 25 15 9 16 8 20 -5 20 -9 0 -13 5 -10 10 3 6 14 10
23 10 10 0 23 9 29 20 11 16 10 18 -1 14 -8 -3 -17 -1 -21 5 -4 7 6 14 24 17
17 4 36 13 43 22 11 13 10 15 -3 10 -9 -3 -22 -2 -30 3 -12 8 -12 10 1 18 18
12 13 17 -26 25 -22 5 -35 2 -44 -9z"/>
<path d="M4218 4733 c7 -3 16 -2 19 1 4 3 -2 6 -13 5 -11 0 -14 -3 -6 -6z"/>
<path d="M3278 4710 c-9 -6 -29 -12 -45 -15 -111 -17 -113 -18 -103 -30 8 -9
20 -11 40 -5 16 4 30 6 33 4 7 -8 97 35 97 46 0 12 0 12 -22 0z"/>
<path d="M4250 4699 c0 -11 5 -17 10 -14 6 3 10 13 10 21 0 8 -4 14 -10 14 -5
0 -10 -9 -10 -21z"/>
<path d="M2140 4702 c0 -11 34 -42 46 -42 5 0 10 -17 12 -37 1 -20 8 -43 14
-51 7 -8 12 -24 13 -35 1 -55 69 -6 84 60 7 33 6 40 -5 36 -7 -3 -25 5 -40 16
-15 12 -34 21 -44 21 -9 0 -25 9 -35 20 -18 20 -45 27 -45 12z"/>
<path d="M4310 4700 c0 -5 7 -10 16 -10 8 0 12 5 9 10 -3 6 -10 10 -16 10 -5
0 -9 -4 -9 -10z"/>
<path d="M4035 4682 c-5 -4 -21 -20 -34 -35 l-24 -27 22 0 c15 0 21 5 19 18
-2 11 3 16 14 14 12 -2 16 4 15 18 -1 11 -1 20 -2 20 0 0 -4 -4 -10 -8z"/>
<path d="M4300 4671 c0 -11 26 -22 34 -14 12 12 5 23 -14 23 -11 0 -20 -4 -20
-9z"/>
<path d="M4210 4650 c-26 -16 -3 -21 31 -6 31 13 32 14 9 15 -14 0 -32 -3 -40
-9z"/>
<path d="M2979 4612 c-24 -16 -52 -38 -62 -49 -17 -20 -17 -21 9 -27 21 -6 32
-2 48 16 12 13 33 29 48 37 22 11 25 17 17 32 -5 11 -11 19 -12 19 -2 0 -23
-13 -48 -28z"/>
<path d="M4306 4629 c3 -6 0 -15 -7 -20 -10 -6 -5 -8 16 -8 17 0 25 3 18 5 -7
3 -9 12 -6 20 3 9 -1 14 -12 14 -9 0 -13 -5 -9 -11z"/>
<path d="M4398 4613 c7 -3 16 -2 19 1 4 3 -2 6 -13 5 -11 0 -14 -3 -6 -6z"/>
<path d="M3980 4599 c0 -5 -4 -8 -9 -4 -12 7 -25 -13 -26 -39 -2 -23 33 -66
52 -66 8 0 29 -11 47 -25 37 -28 117 -33 151 -8 19 13 18 14 -10 7 -16 -4 -32
-8 -34 -10 -9 -8 -61 28 -61 43 0 12 -7 14 -29 10 -30 -6 -71 1 -71 12 0 3 16
6 35 5 47 -3 76 6 68 19 -4 7 7 8 33 4 31 -5 35 -4 20 5 -11 6 -38 8 -67 4
-31 -4 -49 -3 -49 4 0 5 8 10 18 10 16 1 16 1 -1 11 -9 5 -22 7 -27 4 -6 -3
-13 1 -16 9 -7 18 -24 22 -24 5z"/>
<path d="M2320 4570 c0 -16 -5 -30 -11 -30 -5 0 -8 -4 -4 -9 3 -5 2 -12 -3
-15 -11 -7 -14 -64 -3 -71 5 -3 12 -1 16 5 11 17 24 11 40 -20 11 -22 12 -30
3 -30 -9 0 -9 -3 0 -12 10 -10 15 -10 21 1 13 21 31 4 31 -29 0 -33 45 -90 53
-68 4 10 6 10 6 1 1 -7 5 -13 10 -13 12 0 34 56 29 72 -3 7 6 42 19 77 18 50
20 66 11 73 -21 13 -24 10 -38 -32 -14 -44 -40 -74 -40 -47 0 8 7 28 15 43 19
37 19 50 -1 58 -20 8 -47 -12 -40 -29 2 -7 -2 -22 -9 -33 -8 -10 -11 -22 -8
-26 3 -3 1 -6 -6 -6 -11 0 -9 25 9 82 9 29 -8 54 -32 45 -7 -2 -23 7 -35 20
-29 30 -33 29 -33 -7z m53 -56 c9 -10 -21 -36 -33 -29 -8 5 -7 11 1 21 12 15
22 18 32 8z"/>
<path d="M4275 4580 c3 -5 8 -10 11 -10 2 0 4 5 4 10 0 6 -5 10 -11 10 -5 0
-7 -4 -4 -10z"/>
<path d="M4345 4580 c3 -5 11 -10 16 -10 6 0 7 5 4 10 -3 6 -11 10 -16 10 -6
0 -7 -4 -4 -10z"/>
<path d="M4295 4543 c1 -12 10 -17 24 -16 15 2 24 -5 31 -21 10 -26 50 -55 50
-36 0 5 -7 10 -16 10 -10 0 -13 6 -10 18 5 14 -4 24 -33 40 -47 27 -50 27 -46
5z"/>
<path d="M4426 4551 c-19 -7 -19 -8 2 -13 15 -4 22 -2 22 8 0 8 -1 14 -2 13
-2 0 -12 -4 -22 -8z"/>
<path d="M4405 4520 c3 -5 8 -10 11 -10 2 0 4 5 4 10 0 6 -5 10 -11 10 -5 0
-7 -4 -4 -10z"/>
<path d="M4465 4520 c3 -5 10 -10 16 -10 5 0 9 5 9 10 0 6 -7 10 -16 10 -8 0
-12 -4 -9 -10z"/>
<path d="M4159 4498 c15 -21 31 -23 31 -6 0 6 -3 8 -7 5 -3 -4 -13 -1 -22 6
-14 11 -14 10 -2 -5z"/>
<path d="M2250 4490 c0 -5 4 -10 9 -10 6 0 13 5 16 10 3 6 -1 10 -9 10 -9 0
-16 -4 -16 -10z"/>
<path d="M4455 4480 c-3 -5 -1 -10 4 -10 6 0 11 5 11 10 0 6 -2 10 -4 10 -3 0
-8 -4 -11 -10z"/>
<path d="M4510 4484 c1 -31 40 -42 40 -12 0 6 -3 8 -7 5 -3 -4 -12 -2 -20 4
-7 6 -13 8 -13 3z"/>
<path d="M2588 4472 c-10 -2 -18 -10 -18 -18 0 -8 -7 -28 -15 -44 -14 -27 -19
-47 -29 -115 -1 -11 -10 -21 -18 -23 -13 -2 -14 -7 -4 -27 6 -14 14 -25 19
-25 4 0 7 -7 7 -16 0 -8 4 -13 9 -10 5 3 15 -1 22 -10 21 -26 70 -47 82 -35 5
5 11 53 12 106 1 82 4 98 23 118 27 28 27 29 4 53 -24 26 -74 50 -94 46z m52
-32 c0 -5 -9 -14 -20 -20 -16 -9 -20 -8 -20 5 0 9 4 14 9 10 5 -3 12 -1 16 5
8 13 15 13 15 0z"/>
<path d="M4470 4430 c0 -5 4 -10 9 -10 6 0 13 5 16 10 3 6 -1 10 -9 10 -9 0
-16 -4 -16 -10z"/>
<path d="M4130 4420 c19 -13 30 -13 30 0 0 6 -10 10 -22 10 -19 0 -20 -2 -8
-10z"/>
<path d="M4180 4409 c0 -4 10 -10 23 -14 52 -16 73 -10 45 13 -14 11 -68 11
-68 1z"/>
<path d="M4371 4383 c15 -19 25 -25 27 -16 2 7 8 13 13 13 6 0 7 5 4 11 -4 5
-12 8 -18 6 -7 -2 -21 0 -31 6 -17 8 -16 5 5 -20z"/>
<path d="M2711 4369 c-6 -18 -11 -40 -11 -50 0 -9 -5 -19 -11 -21 -14 -5 -22
-138 -8 -138 5 0 9 -5 9 -11 0 -6 -7 -8 -16 -5 -11 4 -8 -3 8 -23 28 -36 50
-40 47 -8 -1 12 1 29 4 37 5 14 16 92 17 133 1 9 7 17 13 17 7 0 6 4 -3 9 -8
6 -18 7 -22 5 -4 -3 -8 0 -8 5 0 10 29 16 53 12 14 -2 6 12 -24 40 -17 16 -32
29 -34 29 -2 0 -8 -14 -14 -31z"/>
<path d="M4103 4370 c-15 -23 -6 -32 19 -19 11 6 33 9 49 7 15 -3 26 -1 23 4
-3 4 -14 8 -25 8 -11 0 -28 4 -38 9 -13 7 -20 5 -28 -9z"/>
<path d="M4545 4380 c3 -5 8 -10 11 -10 2 0 4 5 4 10 0 6 -5 10 -11 10 -5 0
-7 -4 -4 -10z"/>
<path d="M4475 4360 c3 -5 10 -10 16 -10 5 0 9 5 9 10 0 6 -7 10 -16 10 -8 0
-12 -4 -9 -10z"/>
<path d="M4606 4345 c19 -29 29 -27 19 4 -3 12 -13 21 -21 21 -12 0 -12 -4 2
-25z"/>
<path d="M4570 4350 c0 -5 5 -10 11 -10 5 0 7 5 4 10 -3 6 -8 10 -11 10 -2 0
-4 -4 -4 -10z"/>
<path d="M4660 4331 c0 -5 -7 -16 -15 -25 -8 -8 -11 -17 -6 -21 5 -3 12 4 16
15 4 11 11 18 16 15 5 -4 9 1 9 9 0 9 -4 16 -10 16 -5 0 -10 -4 -10 -9z"/>
<path d="M4507 4310 c3 -11 9 -20 14 -20 5 0 9 9 9 20 0 11 -6 20 -14 20 -9 0
-12 -7 -9 -20z"/>
<path d="M4205 4310 c3 -5 11 -10 16 -10 6 0 7 5 4 10 -3 6 -11 10 -16 10 -6
0 -7 -4 -4 -10z"/>
<path d="M4580 4305 c7 -9 15 -13 17 -11 7 7 -7 26 -19 26 -6 0 -6 -6 2 -15z"/>
<path d="M2785 4286 c-18 -28 -41 -185 -31 -212 3 -9 11 -14 18 -12 7 3 19 -9
28 -25 8 -17 18 -28 22 -26 3 2 16 -8 28 -23 33 -42 71 -30 48 15 -5 9 -6 57
-3 105 8 110 9 125 18 138 9 15 -34 53 -58 52 -11 0 -28 3 -37 6 -12 5 -22 0
-33 -18z"/>
<path d="M4394 4288 c-4 -7 -4 -10 0 -6 10 8 46 -28 46 -45 0 -16 37 -36 64
-35 18 1 18 3 -3 19 -12 10 -29 15 -36 12 -8 -3 -15 0 -15 6 0 6 5 11 10 11
19 0 10 17 -17 31 -16 7 -31 15 -35 17 -3 2 -10 -3 -14 -10z"/>
<path d="M4487 4254 c6 -17 52 -38 61 -29 4 3 -3 8 -15 11 -12 3 -24 12 -27
20 -3 8 -10 14 -15 14 -6 0 -8 -7 -4 -16z"/>
<path d="M4600 4260 c0 -5 4 -10 9 -10 6 0 13 5 16 10 3 6 -1 10 -9 10 -9 0
-16 -4 -16 -10z"/>
<path d="M4671 4244 c-7 -16 -6 -27 3 -39 12 -16 13 -16 19 -2 3 9 2 19 -3 22
-20 12 -9 25 15 19 19 -5 25 -2 25 10 0 24 -47 16 -59 -10z"/>
<path d="M2935 4215 c-21 -141 -24 -240 -8 -256 6 -6 19 -1 34 15 13 14 29 26
36 26 31 0 71 90 41 90 -9 0 -10 3 -2 8 6 4 13 21 17 37 3 17 9 38 12 48 5 12
2 17 -9 17 -9 0 -16 5 -16 10 0 6 -11 10 -24 10 -13 0 -26 6 -29 14 -3 8 -15
14 -26 13 -15 -1 -22 -10 -26 -32z"/>
<path d="M4245 4240 c3 -5 14 -10 23 -10 15 0 15 2 2 10 -20 13 -33 13 -25 0z"/>
<path d="M4555 4240 c3 -5 11 -10 16 -10 6 0 7 5 4 10 -3 6 -11 10 -16 10 -6
0 -7 -4 -4 -10z"/>
<path d="M4344 4216 c11 -9 27 -16 35 -16 21 0 2 16 -29 24 -24 7 -24 6 -6 -8z"/>
<path d="M4586 4188 c-28 -37 -28 -39 1 -32 13 4 20 11 16 20 -3 10 5 16 27
20 22 5 28 9 18 15 -23 15 -36 10 -62 -23z"/>
<path d="M4709 4214 c-1 -5 -1 -12 0 -16 1 -8 -14 -12 -36 -9 -16 2 -17 -15
-1 -25 6 -4 14 -2 16 4 2 7 7 10 12 7 10 -6 25 34 16 42 -3 4 -7 2 -7 -3z"/>
<path d="M4406 4202 c-3 -5 1 -15 8 -21 11 -10 14 -9 12 3 -3 21 -13 29 -20
18z"/>
<path d="M4165 4179 c20 -35 28 -41 37 -27 6 9 10 10 16 2 11 -16 52 -36 52
-25 0 5 -6 12 -12 14 -8 3 -5 6 5 6 10 1 27 -4 39 -10 29 -16 33 -4 4 14 -13
9 -44 18 -68 21 -24 2 -52 8 -62 12 -15 6 -17 4 -11 -7z"/>
<path d="M4360 4161 c14 -11 31 -21 39 -21 18 0 14 4 -29 24 l-35 17 25 -20z"/>
<path d="M4460 4174 c0 -3 5 -15 11 -26 9 -16 13 -18 20 -7 4 8 3 19 -3 26
-11 13 -28 18 -28 7z"/>
<path d="M4510 4152 c0 -16 28 -34 34 -23 4 6 -3 15 -14 21 -11 6 -20 7 -20 2z"/>
<path d="M4640 4140 c0 -5 5 -10 11 -10 5 0 7 5 4 10 -3 6 -8 10 -11 10 -2 0
-4 -4 -4 -10z"/>
<path d="M4446 4133 c-7 -7 22 -50 38 -56 25 -10 15 38 -10 50 -13 6 -25 8
-28 6z"/>
<path d="M4350 4126 c0 -2 7 -7 16 -10 8 -3 12 -2 9 4 -6 10 -25 14 -25 6z"/>
<path d="M4700 4116 c0 -9 -5 -16 -10 -16 -7 0 -7 -6 0 -20 6 -11 15 -20 20
-20 13 0 13 57 0 65 -5 3 -10 -1 -10 -9z"/>
<path d="M2616 4112 c-3 -5 1 -15 9 -22 16 -14 20 -3 6 19 -5 8 -11 9 -15 3z"/>
<path d="M4560 4100 c0 -5 5 -10 11 -10 5 0 7 5 4 10 -3 6 -8 10 -11 10 -2 0
-4 -4 -4 -10z"/>
<path d="M4510 4091 c0 -16 59 -76 67 -67 4 4 -1 15 -12 24 -12 10 -24 25 -28
35 -7 17 -27 24 -27 8z"/>
<path d="M4440 4084 c0 -13 18 -39 24 -34 2 3 -2 14 -10 24 -8 11 -14 16 -14
10z"/>
<path d="M2692 4069 c2 -7 10 -15 17 -17 8 -3 12 1 9 9 -2 7 -10 15 -17 17 -8
3 -12 -1 -9 -9z"/>
<path d="M4197 4056 c5 -26 67 -66 103 -66 10 0 22 -4 25 -10 3 -5 15 -10 26
-10 31 0 13 17 -26 24 -48 9 -116 49 -92 54 10 2 28 -3 41 -12 23 -14 36 -12
36 5 0 13 -38 30 -79 35 -36 4 -38 3 -34 -20z"/>
<path d="M4597 4048 c9 -18 16 -45 14 -60 -3 -32 14 -44 34 -24 22 22 2 97
-30 110 -31 12 -35 6 -18 -26z"/>
<path d="M2620 4061 c0 -6 5 -13 10 -16 6 -3 10 1 10 9 0 9 -4 16 -10 16 -5 0
-10 -4 -10 -9z"/>
<path d="M4660 4065 c0 -5 14 -21 32 -37 17 -15 25 -28 18 -28 -11 0 -11 -3
-2 -12 10 -10 15 -10 22 2 6 10 3 19 -8 30 -52 45 -62 52 -62 45z"/>
<path d="M4758 4052 c-22 -4 -23 -28 -2 -36 11 -4 15 -2 11 8 -3 8 -1 17 6 19
18 6 5 14 -15 9z"/>
<path d="M4420 4040 c0 -5 5 -10 10 -10 6 0 10 5 10 10 0 6 -4 10 -10 10 -5 0
-10 -4 -10 -10z"/>
<path d="M4505 4040 c3 -5 11 -10 16 -10 6 0 7 5 4 10 -3 6 -11 10 -16 10 -6
0 -7 -4 -4 -10z"/>
<path d="M4321 4036 c2 -1 19 -8 38 -14 29 -10 32 -10 21 3 -7 8 -24 15 -38
15 -14 0 -23 -2 -21 -4z"/>
<path d="M4487 4020 c3 -11 9 -17 15 -14 5 3 4 12 -3 20 -16 19 -18 18 -12 -6z"/>
<path d="M4539 4016 c-1 -3 -2 -11 -3 -18 0 -7 -11 -17 -24 -24 -33 -16 -40
-27 -11 -15 19 7 30 6 38 -2 18 -18 49 18 35 40 -11 17 -33 29 -35 19z"/>
<path d="M2760 3995 c0 -8 7 -15 16 -15 14 0 14 3 4 15 -7 8 -14 15 -16 15 -2
0 -4 -7 -4 -15z"/>
<path d="M2710 3981 c0 -5 5 -13 10 -16 6 -3 10 -2 10 4 0 5 -4 13 -10 16 -5
3 -10 2 -10 -4z"/>
<path d="M4390 3980 c-12 -8 -12 -10 2 -15 26 -10 43 -2 26 12 -8 7 -19 8 -28
3z"/>
<path d="M2790 3960 c0 -5 5 -10 11 -10 5 0 7 5 4 10 -3 6 -8 10 -11 10 -2 0
-4 -4 -4 -10z"/>
<path d="M4290 3955 c7 -8 17 -12 22 -9 6 4 5 10 -3 15 -22 14 -33 10 -19 -6z"/>
<path d="M4700 3951 c0 -5 5 -13 10 -16 6 -3 10 -2 10 4 0 5 -4 13 -10 16 -5
3 -10 2 -10 -4z"/>
<path d="M4350 3935 c14 -7 27 -11 30 -9 6 7 -22 24 -40 23 -9 0 -5 -6 10 -14z"/>
<path d="M4597 3930 c-4 -16 0 -20 19 -20 26 0 30 10 12 28 -17 17 -25 15 -31
-8z"/>
<path d="M2840 3932 c0 -4 5 -13 12 -20 16 -16 28 -15 28 2 0 8 -7 17 -16 20
-21 8 -24 8 -24 -2z"/>
<path d="M4675 3930 c3 -5 8 -10 11 -10 2 0 4 5 4 10 0 6 -5 10 -11 10 -5 0
-7 -4 -4 -10z"/>
<path d="M2770 3919 c0 -5 9 -9 20 -9 10 0 24 -8 29 -17 11 -19 11 -19 11 25
0 4 -13 7 -30 8 -16 1 -30 -3 -30 -7z"/>
<path d="M4475 3920 c3 -5 8 -10 11 -10 2 0 4 5 4 10 0 6 -5 10 -11 10 -5 0
-7 -4 -4 -10z"/>
<path d="M2933 3905 c-7 -20 2 -29 21 -22 9 4 13 13 10 22 -8 19 -23 19 -31 0z"/>
<path d="M4668 3903 c-10 -2 -18 -8 -18 -13 0 -11 60 -7 61 5 0 12 -18 15 -43
8z"/>
<path d="M4770 3901 c0 -5 7 -11 15 -15 8 -3 15 -1 15 3 0 5 -7 11 -15 15 -8
3 -15 1 -15 -3z"/>
<path d="M4140 3885 c7 -8 20 -15 29 -15 13 1 13 3 -3 15 -26 19 -42 19 -26 0z"/>
<path d="M4365 3883 c21 -14 59 -18 51 -4 -3 5 -20 11 -37 13 -29 5 -30 4 -14
-9z"/>
<path d="M4680 3870 c0 -5 5 -10 11 -10 5 0 7 5 4 10 -3 6 -8 10 -11 10 -2 0
-4 -4 -4 -10z"/>
<path d="M2815 3860 c3 -5 10 -10 16 -10 5 0 9 5 9 10 0 6 -7 10 -16 10 -8 0
-12 -4 -9 -10z"/>
<path d="M4186 3845 c4 -8 15 -15 26 -15 17 0 18 3 8 15 -7 8 -19 15 -26 15
-8 0 -11 -6 -8 -15z"/>
<path d="M4515 3850 c-3 -5 1 -10 9 -10 9 0 16 5 16 10 0 6 -4 10 -9 10 -6 0
-13 -4 -16 -10z"/>
<path d="M2940 3818 c0 -13 5 -29 11 -35 8 -8 5 -13 -11 -18 -15 -5 -18 -10
-11 -19 12 -14 71 -20 71 -7 0 18 -23 61 -32 61 -5 0 -8 7 -6 16 2 10 -3 19
-9 21 -8 3 -13 -4 -13 -19z"/>
<path d="M4094 3832 c4 -7 14 -12 22 -12 8 0 25 -7 38 -16 26 -17 45 -4 22 15
-20 17 -91 28 -82 13z"/>
<path d="M3850 3811 c-7 -14 -7 -22 2 -27 7 -4 8 -3 4 4 -4 7 -2 12 3 12 6 0
11 -9 11 -21 0 -15 4 -19 16 -15 9 3 17 6 19 6 2 0 -3 14 -11 30 -18 35 -29
38 -44 11z"/>
<path d="M4671 3821 c-10 -6 -10 -10 -1 -16 13 -8 24 -1 19 14 -3 6 -10 7 -18
2z"/>
<path d="M4483 3799 c-18 -12 -33 -26 -33 -33 0 -8 -11 -11 -30 -8 -23 3 -30
0 -30 -12 0 -11 -9 -16 -30 -16 -16 0 -30 -4 -30 -10 0 -5 6 -10 14 -10 8 0
17 -4 21 -10 3 -5 -15 -7 -47 -3 -48 6 -52 5 -40 -10 11 -13 10 -15 -7 -10
-24 6 -29 -12 -6 -21 28 -11 16 -26 -17 -19 -26 5 -30 4 -25 -10 8 -22 -11
-22 -41 -1 -35 24 -40 7 -7 -21 19 -16 38 -23 51 -20 16 4 21 0 20 -13 -1 -12
7 -17 27 -18 33 -1 35 13 3 26 -13 5 -27 14 -31 19 -9 16 17 13 39 -4 11 -8
24 -15 30 -15 6 0 1 7 -11 15 -13 9 -20 22 -17 30 5 13 9 13 27 0 12 -8 28
-15 35 -15 12 0 11 5 -2 26 l-17 25 35 -7 c38 -7 49 9 24 34 -9 9 -8 12 5 12
9 0 17 -4 17 -10 0 -5 9 -10 21 -10 13 0 18 4 13 13 -4 6 2 4 13 -5 22 -20 53
-24 53 -8 0 6 -11 15 -24 20 -13 5 -27 14 -32 21 -5 9 -2 10 12 5 10 -5 35
-10 54 -13 48 -6 62 -9 82 -18 23 -9 12 -27 -13 -20 -10 3 -29 8 -41 11 -21 6
-21 6 3 -24 13 -17 30 -31 38 -31 11 -1 9 3 -4 13 -17 12 -16 14 17 18 21 2
44 -2 54 -9 17 -12 16 -13 -4 -13 -12 0 -22 -4 -22 -10 0 -15 39 -12 56 4 20
20 18 26 -10 26 -13 0 -30 7 -37 16 -12 15 -11 16 10 9 21 -6 23 -5 19 13 -3
12 -1 23 6 26 7 3 6 8 -4 15 -8 5 -17 6 -20 2 -3 -5 -15 -12 -28 -16 -22 -6
-22 -5 -10 14 7 12 22 21 33 21 27 0 55 20 37 27 -7 2 -19 11 -26 19 -12 11
-15 11 -20 -2 -5 -13 -9 -14 -21 -4 -9 7 -27 10 -45 7 -16 -4 -32 -2 -35 3 -9
14 -16 12 -52 -11z m-43 -79 c0 -5 -4 -10 -9 -10 -6 0 -13 5 -16 10 -3 6 1 10
9 10 9 0 16 -4 16 -10z"/>
<path d="M3490 3794 c0 -19 31 -74 42 -74 4 0 8 7 8 15 0 23 30 18 40 -7 5
-13 9 -17 9 -9 1 8 7 11 19 7 9 -3 0 10 -22 29 -21 19 -47 35 -57 35 -10 0
-19 5 -19 10 0 6 -4 10 -10 10 -5 0 -10 -7 -10 -16z"/>
<path d="M4700 3800 c0 -5 7 -10 16 -10 8 0 12 5 9 10 -3 6 -10 10 -16 10 -5
0 -9 -4 -9 -10z"/>
<path d="M3943 3781 c-3 -11 -9 -18 -14 -15 -5 3 -9 1 -9 -5 0 -15 21 -25 29
-14 3 5 15 14 25 20 18 10 18 11 -3 23 -20 10 -23 9 -28 -9z"/>
<path d="M4350 3774 c0 -13 25 -26 34 -17 13 14 5 32 -14 30 -11 -1 -20 -7
-20 -13z"/>
<path d="M4145 3770 c3 -5 18 -10 33 -9 24 0 25 1 7 9 -28 12 -47 12 -40 0z"/>
<path d="M3105 3760 c3 -5 8 -10 11 -10 2 0 4 5 4 10 0 6 -5 10 -11 10 -5 0
-7 -4 -4 -10z"/>
<path d="M3030 3745 c0 -8 10 -19 22 -26 18 -10 20 -9 15 6 -4 9 -7 21 -7 26
0 5 -7 9 -15 9 -8 0 -15 -7 -15 -15z"/>
<path d="M3130 3753 c0 -15 15 -30 36 -37 12 -4 21 -14 20 -22 -1 -12 10 -16
42 -18 37 -2 42 0 42 20 0 23 -50 52 -69 39 -6 -3 -21 1 -33 9 -24 17 -38 20
-38 9z m90 -44 c0 -6 -4 -7 -10 -4 -5 3 -10 11 -10 16 0 6 5 7 10 4 6 -3 10
-11 10 -16z"/>
<path d="M3090 3735 c0 -18 39 -59 48 -51 8 8 -18 54 -34 60 -8 3 -14 -1 -14
-9z"/>
<path d="M3340 3740 c0 -5 5 -10 11 -10 5 0 7 5 4 10 -3 6 -8 10 -11 10 -2 0
-4 -4 -4 -10z"/>
<path d="M3910 3728 c0 -9 7 -22 17 -29 15 -13 15 -12 3 11 -17 34 -20 36 -20
18z"/>
<path d="M4150 3730 c0 -5 9 -14 20 -20 22 -12 27 -1 8 18 -14 14 -28 16 -28
2z"/>
<path d="M3710 3725 c0 -10 39 -44 44 -37 2 4 -7 15 -20 25 -13 10 -24 15 -24
12z"/>
<path d="M3444 3705 c11 -8 22 -12 25 -9 6 6 -19 24 -34 24 -5 -1 -1 -7 9 -15z"/>
<path d="M4070 3680 c0 -5 5 -10 11 -10 5 0 7 5 4 10 -3 6 -8 10 -11 10 -2 0
-4 -4 -4 -10z"/>
<path d="M3293 3660 c-13 -10 -23 -23 -23 -29 0 -11 39 -41 55 -41 5 0 4 4 -4
9 -9 6 -11 16 -7 27 7 18 9 18 23 -3 9 -13 22 -23 29 -23 20 0 18 5 -18 44
-33 35 -33 35 -55 16z"/>
<path d="M3510 3667 c0 -14 31 -47 43 -47 17 0 5 29 -18 44 -20 13 -25 14 -25
3z"/>
<path d="M4506 3649 c-11 -11 -16 -22 -13 -26 4 -3 7 -3 7 2 0 4 6 2 14 -4 19
-16 54 -22 61 -10 4 5 -7 12 -24 15 -32 7 -41 19 -19 26 7 3 8 7 3 10 -6 3
-19 -3 -29 -13z"/>
<path d="M3210 3655 c0 -6 20 -46 38 -74 1 -2 4 -2 7 1 6 6 -23 65 -36 73 -5
4 -9 3 -9 0z"/>
<path d="M3640 3646 c0 -8 14 -24 30 -36 36 -26 38 -15 5 23 -27 30 -35 33
-35 13z"/>
<path d="M4000 3651 c0 -12 39 -35 46 -28 3 2 -7 12 -21 21 -14 9 -25 12 -25
7z"/>
<path d="M4430 3653 c0 -5 5 -15 10 -23 8 -13 10 -13 10 2 0 9 8 19 18 21 10
3 6 5 -10 6 -16 0 -28 -2 -28 -6z"/>
<path d="M4070 3640 c0 -5 5 -10 11 -10 5 0 7 5 4 10 -3 6 -8 10 -11 10 -2 0
-4 -4 -4 -10z"/>
<path d="M3428 3634 c-8 -7 21 -64 33 -64 12 0 12 2 -7 38 -16 34 -18 35 -26
26z"/>
<path d="M3600 3625 c0 -17 47 -51 57 -41 7 7 -36 56 -49 56 -4 0 -8 -7 -8
-15z"/>
<path d="M3778 3633 c7 -3 16 -2 19 1 4 3 -2 6 -13 5 -11 0 -14 -3 -6 -6z"/>
<path d="M3730 3605 c17 -18 27 -22 34 -14 12 12 -17 39 -43 39 -10 0 -8 -7 9
-25z"/>
<path d="M4374 3618 c-4 -6 -3 -8 4 -4 6 3 15 -2 21 -11 8 -14 12 -16 22 -5
11 10 10 12 -4 12 -9 0 -17 5 -17 10 0 14 -17 13 -26 -2z"/>
<path d="M3509 3602 c5 -10 18 -25 28 -33 12 -10 11 -5 -6 19 -24 35 -38 43
-22 14z"/>
<path d="M3975 3600 c3 -5 8 -10 11 -10 2 0 4 5 4 10 0 6 -5 10 -11 10 -5 0
-7 -4 -4 -10z"/>
<path d="M4130 3595 c0 -9 5 -15 11 -13 6 2 11 8 11 13 0 5 -5 11 -11 13 -6 2
-11 -4 -11 -13z"/>
<path d="M4698 3603 c7 -3 16 -2 19 1 4 3 -2 6 -13 5 -11 0 -14 -3 -6 -6z"/>
<path d="M4777 3590 c5 -20 15 -25 26 -14 6 6 -16 34 -26 34 -3 0 -3 -9 0 -20z"/>
<path d="M3560 3590 c0 -14 38 -32 45 -21 3 6 -3 15 -14 20 -24 14 -31 14 -31
1z"/>
<path d="M3903 3593 c-18 -7 -16 -23 2 -23 8 0 15 7 15 15 0 8 -1 15 -2 14 -2
0 -9 -3 -15 -6z"/>
<path d="M3935 3590 c3 -5 8 -10 11 -10 2 0 4 5 4 10 0 6 -5 10 -11 10 -5 0
-7 -4 -4 -10z"/>
<path d="M4350 3590 c0 -5 5 -10 11 -10 5 0 7 5 4 10 -3 6 -8 10 -11 10 -2 0
-4 -4 -4 -10z"/>
<path d="M4170 3580 c0 -5 5 -10 11 -10 5 0 7 5 4 10 -3 6 -8 10 -11 10 -2 0
-4 -4 -4 -10z"/>
<path d="M4645 3580 c4 -6 11 -8 16 -5 14 9 11 15 -7 15 -8 0 -12 -5 -9 -10z"/>
<path d="M3360 3572 c0 -16 28 -34 34 -23 4 6 -3 15 -14 21 -11 6 -20 7 -20 2z"/>
<path d="M3700 3570 c0 -5 5 -10 10 -10 6 0 10 5 10 10 0 6 -4 10 -10 10 -5 0
-10 -4 -10 -10z"/>
<path d="M3328 3563 c7 -3 16 -2 19 1 4 3 -2 6 -13 5 -11 0 -14 -3 -6 -6z"/>
<path d="M4195 3550 c-3 -5 3 -10 13 -10 11 0 22 -7 26 -15 6 -16 36 -21 36
-6 0 10 -44 41 -59 41 -5 0 -13 -4 -16 -10z"/>
<path d="M4570 3550 c0 -5 5 -10 11 -10 5 0 7 5 4 10 -3 6 -8 10 -11 10 -2 0
-4 -4 -4 -10z"/>
<path d="M4607 3553 c-12 -12 -7 -22 8 -17 8 4 15 10 15 15 0 11 -14 12 -23 2z"/>
<path d="M4678 3553 c6 -2 18 -2 25 0 6 3 1 5 -13 5 -14 0 -19 -2 -12 -5z"/>
<path d="M4310 3536 c0 -7 -7 -19 -16 -27 -14 -11 -12 -14 13 -27 15 -8 45
-16 66 -17 36 -2 37 -2 17 12 -12 8 -28 12 -37 9 -16 -6 -43 9 -43 25 0 5 6 9
13 9 8 0 14 7 14 15 0 8 -6 15 -14 15 -7 0 -13 -6 -13 -14z"/>
<path d="M4780 3540 c-12 -8 -11 -10 8 -10 12 0 22 5 22 10 0 13 -11 13 -30 0z"/>
<path d="M3410 3530 c0 -5 7 -10 16 -10 8 0 12 5 9 10 -3 6 -10 10 -16 10 -5
0 -9 -4 -9 -10z"/>
<path d="M3530 3530 c20 -13 33 -13 25 0 -3 6 -14 10 -23 10 -15 0 -15 -2 -2
-10z"/>
<path d="M3460 3522 c0 -4 11 -9 26 -10 14 -1 23 2 19 8 -7 12 -45 14 -45 2z"/>
<path d="M3770 3521 c0 -6 -6 -10 -12 -8 -7 1 -12 -4 -10 -12 2 -8 -3 -11 -11
-8 -12 4 -54 -30 -45 -37 2 -2 12 -8 23 -15 17 -11 15 -11 -16 -6 -32 5 -40 1
-68 -27 -28 -28 -30 -34 -16 -44 8 -6 15 -16 15 -23 0 -6 5 -11 11 -11 5 0 7
4 4 10 -3 5 0 8 7 5 24 -9 41 10 29 33 -13 24 3 34 34 20 18 -8 18 -8 -2 -4
-33 6 -28 -13 6 -27 26 -11 31 -16 31 -33 0 -4 8 0 17 7 15 12 16 12 11 -3 -8
-20 21 -48 48 -48 17 0 16 3 -6 20 l-25 19 40 -5 c36 -5 38 -4 22 9 -16 14
-15 15 15 20 35 5 60 -7 52 -26 -7 -20 41 -71 59 -64 21 8 22 27 3 27 -10 0
-12 7 -8 22 3 14 2 19 -6 14 -8 -4 -16 3 -22 18 -5 14 -16 26 -25 26 -8 0 -15
6 -15 13 -1 18 -30 49 -70 74 -19 12 -35 26 -35 30 0 4 -8 7 -17 6 -20 -3 -25
13 -6 19 9 3 9 6 0 12 -7 4 -12 2 -12 -3z"/>
<path d="M4174 3505 c-5 -20 -9 -23 -24 -15 -10 6 -26 10 -34 10 -29 0 -17
-17 24 -35 46 -21 65 -40 25 -25 -31 12 -51 4 -36 -14 6 -7 8 -16 4 -19 -11
-12 -23 -8 -23 8 0 8 -7 15 -15 15 -8 0 -15 3 -15 8 0 13 -59 34 -78 28 -11
-4 -31 4 -52 19 -41 30 -54 32 -47 5 7 -27 -1 -25 -25 5 -21 27 -48 33 -48 11
0 -19 27 -46 46 -46 8 0 14 -4 14 -10 0 -5 11 -12 25 -16 13 -3 27 -15 30 -25
4 -10 11 -19 16 -19 6 0 22 -13 36 -30 13 -16 29 -30 35 -30 7 0 6 5 -1 14 -9
10 -8 15 4 20 10 3 15 -1 15 -14 0 -10 18 -34 41 -54 30 -25 35 -33 19 -29
-12 3 -24 12 -27 19 -7 18 -23 18 -23 0 0 -8 10 -22 22 -30 l22 -16 -22 0
c-20 0 -51 36 -66 75 -2 6 -7 7 -11 3 -4 -4 -4 -13 2 -20 5 -7 10 -24 11 -37
1 -25 20 -44 34 -35 4 3 19 -3 33 -12 24 -16 25 -16 25 6 0 16 4 20 16 16 8
-3 23 1 31 10 14 13 14 17 2 25 -8 5 -17 9 -21 9 -3 0 -21 14 -38 31 -31 31
-31 32 -10 46 11 8 17 19 14 25 -7 12 -6 11 48 -16 22 -11 44 -16 55 -12 17 7
17 8 -1 21 -10 8 -24 16 -30 18 -6 3 -3 11 9 21 11 8 27 13 35 10 40 -16 50
-16 50 1 0 11 5 15 15 11 17 -6 21 9 4 20 -6 3 -16 1 -22 -5 -14 -14 -57 -14
-57 0 0 7 -8 18 -17 25 -10 7 -13 14 -7 14 6 0 17 -7 24 -15 14 -17 46 -20 55
-5 3 6 -2 13 -11 17 -10 3 -26 15 -36 25 -24 24 -36 23 -44 -7z"/>
<path d="M4640 3520 c0 -5 5 -10 10 -10 6 0 10 5 10 10 0 6 -4 10 -10 10 -5 0
-10 -4 -10 -10z"/>
<path d="M3360 3510 c0 -6 7 -10 15 -10 8 0 15 2 15 4 0 2 -7 6 -15 10 -8 3
-15 1 -15 -4z"/>
<path d="M3500 3485 c0 -16 16 -20 24 -6 3 5 -1 11 -9 15 -9 3 -15 0 -15 -9z"/>
<path d="M3440 3480 c0 -5 5 -10 11 -10 5 0 7 5 4 10 -3 6 -8 10 -11 10 -2 0
-4 -4 -4 -10z"/>
<path d="M4650 3480 c0 -5 7 -10 15 -10 8 0 15 5 15 10 0 6 -7 10 -15 10 -8 0
-15 -4 -15 -10z"/>
<path d="M3280 3470 c0 -5 5 -10 11 -10 5 0 7 5 4 10 -3 6 -8 10 -11 10 -2 0
-4 -4 -4 -10z"/>
<path d="M4765 3470 c3 -5 11 -10 16 -10 6 0 7 5 4 10 -3 6 -11 10 -16 10 -6
0 -7 -4 -4 -10z"/>
<path d="M4756 3442 c-3 -6 -1 -14 5 -17 15 -10 25 3 12 16 -7 7 -13 7 -17 1z"/>
<path d="M4280 3393 c-1 -26 -2 -27 -15 -9 -13 18 -35 15 -35 -5 0 -6 5 -7 10
-4 6 3 10 -1 10 -9 0 -9 -5 -16 -12 -16 -9 0 -9 -3 -1 -11 15 -15 66 18 59 38
-3 8 1 16 9 19 22 9 18 24 -5 24 -15 0 -20 -7 -20 -27z"/>
<path d="M4638 3413 c7 -3 16 -2 19 1 4 3 -2 6 -13 5 -11 0 -14 -3 -6 -6z"/>
<path d="M4705 3400 c-3 -5 -1 -10 4 -10 6 0 11 5 11 10 0 6 -2 10 -4 10 -3 0
-8 -4 -11 -10z"/>
<path d="M3515 3390 c3 -5 13 -10 21 -10 8 0 12 5 9 10 -3 6 -13 10 -21 10 -8
0 -12 -4 -9 -10z"/>
<path d="M4372 3385 c-11 -12 -10 -15 3 -15 8 0 15 7 15 15 0 18 -2 18 -18 0z"/>
<path d="M4500 3366 c0 -2 7 -6 15 -10 8 -3 15 -1 15 4 0 6 -7 10 -15 10 -8 0
-15 -2 -15 -4z"/>
<path d="M4120 3350 c0 -5 10 -10 23 -10 18 0 19 2 7 10 -19 13 -30 13 -30 0z"/>
<path d="M4320 3356 c0 -2 11 -6 25 -8 14 -3 25 -1 25 3 0 5 -11 9 -25 9 -14
0 -25 -2 -25 -4z"/>
<path d="M3705 3340 c3 -5 8 -10 11 -10 2 0 4 5 4 10 0 6 -5 10 -11 10 -5 0
-7 -4 -4 -10z"/>
<path d="M3670 3330 c0 -5 5 -10 10 -10 6 0 10 5 10 10 0 6 -4 10 -10 10 -5 0
-10 -4 -10 -10z"/>
<path d="M3900 3329 c0 -5 5 -7 10 -4 6 3 10 8 10 11 0 2 -4 4 -10 4 -5 0 -10
-5 -10 -11z"/>
<path d="M4170 3321 c0 -5 6 -12 13 -14 10 -4 10 -6 0 -6 -7 -1 -13 -6 -13
-12 0 -8 5 -8 15 1 8 7 15 19 15 26 0 8 -7 14 -15 14 -8 0 -15 -4 -15 -9z"/>
<path d="M4280 3321 c0 -11 61 -34 68 -26 9 8 -10 22 -40 29 -16 3 -28 2 -28
-3z"/>
<path d="M3717 3313 c-13 -12 -7 -23 13 -23 11 0 23 -7 26 -15 4 -8 12 -15 19
-15 8 0 3 12 -13 30 -27 31 -34 35 -45 23z"/>
<path d="M4242 3301 c-11 -6 -11 -10 0 -19 16 -13 44 1 34 17 -8 13 -16 14
-34 2z"/>
<path d="M3900 3280 c0 -5 7 -10 16 -10 8 0 12 5 9 10 -3 6 -10 10 -16 10 -5
0 -9 -4 -9 -10z"/>
<path d="M3846 3258 c9 -13 26 -23 38 -24 12 0 29 -4 39 -8 13 -7 16 -5 11 8
-4 10 -20 20 -35 23 -16 3 -32 10 -35 14 -3 5 -12 9 -20 9 -13 0 -12 -4 2 -22z"/>
<path d="M4185 3271 c-3 -5 8 -9 24 -9 17 1 28 5 25 10 -7 11 -41 10 -49 -1z"/>
<path d="M4340 3254 c0 -8 5 -12 10 -9 6 4 8 11 5 16 -9 14 -15 11 -15 -7z"/>
<path d="M3970 3240 c0 -5 5 -10 11 -10 5 0 7 5 4 10 -3 6 -8 10 -11 10 -2 0
-4 -4 -4 -10z"/>
<path d="M4190 3229 c0 -5 4 -9 9 -9 5 0 17 -3 27 -7 11 -4 15 -3 11 4 -9 14
-47 24 -47 12z"/>
<path d="M4285 3220 c3 -5 8 -10 11 -10 2 0 4 5 4 10 0 6 -5 10 -11 10 -5 0
-7 -4 -4 -10z"/>
<path d="M4325 3210 c4 -6 11 -8 16 -5 14 9 11 15 -7 15 -8 0 -12 -5 -9 -10z"/>
<path d="M3865 3200 c3 -5 8 -10 11 -10 2 0 4 5 4 10 0 6 -5 10 -11 10 -5 0
-7 -4 -4 -10z"/>
<path d="M4170 3200 c0 -5 12 -10 26 -10 14 0 23 4 19 10 -3 6 -15 10 -26 10
-10 0 -19 -4 -19 -10z"/>
<path d="M4485 3200 c-3 -6 1 -7 9 -4 18 7 21 14 7 14 -6 0 -13 -4 -16 -10z"/>
<path d="M3980 3195 c0 -2 9 -9 20 -15 16 -9 18 -8 14 5 -5 13 -34 22 -34 10z"/>
<path d="M4120 3192 c0 -5 9 -12 21 -15 13 -3 19 -1 16 6 -5 15 -37 22 -37 9z"/>
<path d="M4408 3193 c7 -3 16 -2 19 1 4 3 -2 6 -13 5 -11 0 -14 -3 -6 -6z"/>
<path d="M4090 3170 c0 -5 5 -10 10 -10 6 0 10 5 10 10 0 6 -4 10 -10 10 -5 0
-10 -4 -10 -10z"/>
<path d="M4280 3161 c0 -12 7 -15 55 -26 24 -5 28 -4 18 6 -7 7 -18 14 -25 15
-7 1 -21 5 -30 9 -11 4 -18 3 -18 -4z"/>
<path d="M4230 3140 c0 -5 5 -10 11 -10 5 0 7 5 4 10 -3 6 -8 10 -11 10 -2 0
-4 -4 -4 -10z"/>
</g>
</svg>
