<?xml version="1.0" encoding="UTF-8" standalone="no"?>
<!-- Generator: Adobe Illustrator 16.0.0, SVG Export Plug-In . SVG Version: 6.00 Build 0)  -->

<svg
   version="1.1"
   id="Layer_1"
   x="0px"
   y="0px"
   width="495.67145"
   height="224.99823"
   inkscape:version="1.2.1 (9c6d41e410, 2022-07-14)"
   sodipodi:docname="back.svg"
   xmlns:inkscape="http://www.inkscape.org/namespaces/inkscape"
   xmlns:sodipodi="http://sodipodi.sourceforge.net/DTD/sodipodi-0.dtd"
   xmlns="http://www.w3.org/2000/svg"
   xmlns:svg="http://www.w3.org/2000/svg">
  <path
     d="m 495.66943,29.036104 c -20.665,-0.005 -41.33,-0.022 -61.994,-0.034 -12.906,-0.007 -29.17,-2.794 -41.607,0.484 -4.938,1.305 -4.288,7.45 -9.164,8.86 -7.136,2.065 -15.331,-0.726 -22.654,-0.188 -7.112,0.521 -6.944,7.006 -11.794,10.139 -4.057,2.618 -13.218,-3.709 -16.675,-5.268 -16.942,-7.646 -33.983,-15.069 -51.072,-22.381 -14.876,-6.363 -29.767,-12.696 -44.605,-19.148 -6.51,-2.831 -13.403,-1.03 -20.021,0.322 -8.826,1.806 -17.85,2.052 -26.781,3.074 -15.217,1.739 -30.139,2.853 -45.449,3.134 -7.097,0.129 -14.245,0.325 -21.317,-0.422 -2.717,-0.286 -5.471,-0.251 -8.036,0.853 -4.204,1.807 -9.503,-0.12 -14.134,1.023 -14.710003,3.624 -30.903003,2.059 -45.910003,2.404 -16.729,0.387 -33.418,1.873 -50.1459996,2.058 -6.388,0.069 -4.08599996,11.627 -3.01,15.535 1.76,6.386 6.049,11.639 11.8189996,14.829 6.147,3.4 13.688,4.663 20.552,5.78 8.342,1.36 19.09,-0.115 26.933,3.122 12.389,5.123 29.963,7.612 43.282003,6.151 8.055,-0.88 13.604,0.928 21.421,2.969 2.821,0.738 21.915,2.409 22.757,4.036 1.652,3.198 -13.337,18.565 -15.369,21.278 -3.05,4.076 -5.978,8.458 -7.622,13.317996 -1.957,5.781 -0.111,7.688 -4.7,12.041 -16.239,15.412 -10.732,37.298 11.893,40.208 9.43,1.215 18.536,0.465 26.119,7.27 7.768,6.969 16.26,9.579 24.913,14.807 7.194,4.344 14.267,13.689 22.977,15.054 3.536,0.556 7.945,-1.695 10.737,-3.631 3.855,-2.667 4.568,-7.907 7.475,-10.188 10.954,8.758 26.658,-2.867 31.207,-13.067 1.557,-3.486 37.082,7.375 42.693,8.075 15.412,1.922 31.367,0.958 45.957,-4.689 6.384,-2.469 5.607,6.552 6.293,10.354 1.303,7.228 3.481,15.662 9.263,20.682 9.508,8.249 22.372,-3.356 26.034,12.359 0.903,3.882 1.72,13.104 6.743,14.279 7.001,1.637 17.954,-1.438 25.392,-1.425 19.823,0.036 39.645,-0.24 59.468,-0.204 3.02,0.006 18.134,0.983 18.134,-0.854 0,-3.095 0,-6.188 0,-9.281 0,-13.158 0,-26.318 0,-39.476 0,-35.356 0,-70.715 0,-106.076996 -0.002,-12.72 -0.002,-25.442 -0.002,-38.165 z m -317.484,91.489996 c 0,-0.521 -14.355,0.443 -15.674,0.804 -6.246,1.715 -7.671,1.894 -13.816,-0.71 -6.776,-2.865 -12.629,-0.565 -19.353,-1.64 -8.905,-1.422 7.253,-10.492 8.934,-11.192 13.522,-5.646 28.967,-9.119996 43.02,-3.871 2.491,0.928 5.933,2.732 8.677,1.617 2.603,-1.056 3.264,-3.202 6.491,-3.326 7.438,-0.292 14.571,-0.673 21.778,-2.776996 14.306,-4.176 27.085,-11.429 39.39,-19.578 5.329,-3.531 12.734,-7.342 19.343,-6.654 8.308,0.86 3.324,-7.14 -3.127,-7.38 -9.091,-0.343 -27.168,14.376 -34.69,6.201 -4.213,-4.576 1.614,-11.098 3.335,-15.396 3.229,-8.075 -5.775,-6.513 -9.368,-2.277 -2.343,2.764 -7.711,11.656 -12.389,8.325 -5.092,-3.624 -5.803,-7.828 -4.512,-13.676 2.063,-9.383 -6.71,-4.208 -11.416,-3.105 -9.17,2.154 -18.591,3.259 -28.015,3.12 -7.463,-0.104 -14.93,-1.126 -22.015,-3.527 -6.983,-2.365 -11.1,-5.092 -18.611,-2.796 -15.883,4.849 -33.244,-1.066 -49.430003,-0.315 -6.687,0.313 -14.439,0.891 -20.822,-1.645 -6.65,-2.646 -14.208,-0.017 -21.112,-0.055 -7.431,-0.039 -14.803,-1.071 -21.951,-3.129 -3.33,-0.959 -6.75,-2.068 -9.852,-3.644 -0.532,-0.27 -5.2179996,-3.991 -1.787,-3.486 6.951,1.023 15.42,1.856 22.258,-0.004 6.401,-1.741 6.238,-7.432 10.878,-10.625 4.212,-2.896 13.903,-0.464 18.748,-0.378 9.117,0.161 18.155,-0.268 27.243,-0.962 4.053,-0.31 9.666003,-1.396 13.485003,0.653 4.067,2.183 5.672,4.584 10.497,1.037 8.314,-6.106 20.445,-3.337 30.035,-3.283 23.939,0.135 46.823,-5.071 70.583,-6.21 23.8,-1.145 43.704,8.547 65.143,17.893 21.939,9.563 43.84,20.476 66.52,28.167 12.148,4.123 14.72,10.033 15.653,22.695 0.721,9.745 0.35,21.926996 -7.522,28.966996 -8.542,7.64 -20.868,6.688 -31.485,7.37 -11.035,0.709 -22.115,1.563 -33.152,0.464 -8.888,-0.881 -21.497,-5.297 -29.958,-1.391 -9.629,4.45 -15.719,9.642 -26.993,8.381 -9.82,-1.096 -19.636,-1.662 -29.072,-2.876 -2.481,-0.32 -7.164,2.998 -8.927,2.063 -5.099,-2.711 -11.433,-1.849 -16.962,-1.849 0,0.009 2.939,0 0,0 z m 226.905,-5.567 c 0.114,14.937 -0.463,29.894 -1.281,44.802 -0.44,8.016 -0.98,16.21 -2.235,24.141 -1.2,7.592 -5.606,8.354 -12.688,8.662 -5.165,0.225 -14.06,1.273 -18.508,-1.961 -5.252,-3.82 -4.029,-12.657 -3.574,-18.151 1.397,-16.891 3.381,-33.696 3.921,-50.648 0.497,-15.568 0.566,-31.312996 -0.545,-46.855996 -0.484,-6.769 -0.736,-13.809 -1.98,-20.492 -1.461,-7.848 -0.794,-8.43 7.546,-8.866 13.765,-0.723 23.825,-0.697 26.556,14.966 3.094,17.765 2.788,36.427 2.788,54.402996 0.036,4.601 0,-2.723 0,0 z m -264.16,27.061 c -6.543,-0.212 -16.547,-0.484 -22.453,-3.606 -7.001,-3.691 11.305,-10.522 12.831,-10.829 4.617,-0.934 12.255,-1.52 15.69,2.627 6.185,7.465 3.129,12.048 -6.068,11.808 -1.234,-0.041 2.18,0.056 0,0 z M 19.579427,26.701104 c -3.399,-0.222 -8.804,0.093 -10.8309996,-3.369 -3.153,-5.382 8.5319996,-4.047 11.0609996,-4.261 2.688,-0.229 15.649,-3.324 15.687,1.15 0.051,6.869 -11.577,6.233 -15.917,6.48 -1.401,-0.091 3.822,-0.22 0,0 z"
     fill-rule="evenodd"
     clip-rule="evenodd"
     id="path151" />
  <sodipodi:namedview
     bordercolor="#eeeeee"
     pagecolor="#505050"
     inkscape:zoom="2.0921116"
     inkscape:cx="233.97413"
     inkscape:cy="112.5657"
     inkscape:window-width="1350"
     inkscape:window-height="1230"
     inkscape:window-x="576"
     inkscape:window-y="103"
     inkscape:window-maximized="0"
     inkscape:current-layer="Layer_1"
     id="namedview153"
     borderopacity="1"
     inkscape:showpageshadow="0"
     inkscape:pageopacity="0"
     inkscape:pagecheckerboard="0"
     inkscape:deskcolor="#505050" />
  <defs
     id="defs155" />
</svg>
